<?xml version="1.0" encoding="UTF-8" standalone="no"?>
<!-- Created with Inkscape (http://www.inkscape.org/) -->

<svg
   width="127mm"
   height="87.124466mm"
   viewBox="0 0 127 87.124466"
   version="1.1"
   id="svg5"
   sodipodi:docname="MSD.svg"
   inkscape:version="1.1.1 (3bf5ae0d25, 2021-09-20)"
   xmlns:inkscape="http://www.inkscape.org/namespaces/inkscape"
   xmlns:sodipodi="http://sodipodi.sourceforge.net/DTD/sodipodi-0.dtd"
   xmlns="http://www.w3.org/2000/svg"
   xmlns:svg="http://www.w3.org/2000/svg"
   xmlns:ns7="http://www.iki.fi/pav/software/textext/">
  <sodipodi:namedview
     id="namedview7"
     pagecolor="#ffffff"
     bordercolor="#666666"
     borderopacity="1.0"
     inkscape:pageshadow="2"
     inkscape:pageopacity="0.0"
     inkscape:pagecheckerboard="0"
     inkscape:document-units="mm"
     showgrid="false"
     inkscape:zoom="1.100881"
     inkscape:cx="321.10647"
     inkscape:cy="222.09486"
     inkscape:window-width="1920"
     inkscape:window-height="1017"
     inkscape:window-x="-8"
     inkscape:window-y="-8"
     inkscape:window-maximized="1"
     inkscape:current-layer="layer1"
     showguides="true" />
  <defs
     id="defs2">
    <marker
       style="overflow:visible"
       id="Arrow1Mend"
       refX="0"
       refY="0"
       orient="auto"
       inkscape:stockid="Arrow1Mend"
       inkscape:isstock="true">
      <path
         transform="matrix(-0.4,0,0,-0.4,-4,0)"
         style="fill:context-stroke;fill-rule:evenodd;stroke:context-stroke;stroke-width:1pt"
         d="M 0,0 5,-5 -12.5,0 5,5 Z"
         id="path1090" />
    </marker>
    <marker
       style="overflow:visible"
       id="Arrow1Send"
       refX="0"
       refY="0"
       orient="auto"
       inkscape:stockid="Arrow1Send"
       inkscape:isstock="true">
      <path
         transform="matrix(-0.2,0,0,-0.2,-1.2,0)"
         style="fill:context-stroke;fill-rule:evenodd;stroke:context-stroke;stroke-width:1pt"
         d="M 0,0 5,-5 -12.5,0 5,5 Z"
         id="path1096" />
    </marker>
    <marker
       style="overflow:visible"
       id="Arrow2Mstart"
       refX="0"
       refY="0"
       orient="auto"
       inkscape:stockid="Arrow2Mstart"
       inkscape:isstock="true">
      <path
         transform="scale(0.6)"
         d="M 8.7185878,4.0337352 -2.2072895,0.01601326 8.7185884,-4.0017078 c -1.7454984,2.3720609 -1.7354408,5.6174519 -6e-7,8.035443 z"
         style="fill:context-stroke;fill-rule:evenodd;stroke:context-stroke;stroke-width:0.625;stroke-linejoin:round"
         id="path1105" />
    </marker>
  </defs>
  <g
     inkscape:label="Layer 1"
     inkscape:groupmode="layer"
     id="layer1"
     transform="translate(-30.670518,-61.935082)">
    <g
       id="g8877"
       transform="matrix(0.8984098,0,0,0.8984098,3.1158241,6.2919973)">
      <g
         transform="matrix(6.4561,0,0,6.4561,40.6726,81.0722)"
         ns7:version="1.7.1"
         ns7:texconverter="pdflatex"
         ns7:pdfconverter="inkscape"
         ns7:text="$\\frac{A}{\\gamma(\\nu+\\gamma)}$"
         ns7:preamble="C:\Users\liuzy\AppData\Roaming\inkscape\extensions\textext\default_packages.tex"
         ns7:scale="1.0"
         ns7:alignment="middle center"
         ns7:stroke-to-path="0"
         ns7:jacobian_sqrt="0.352778"
         id="g63">
        <defs
           id="id-cb1fb692-cf46-47b5-a463-265cc554adae">
          <g
             id="id-d9c500f8-5ed0-4f0e-b9f2-51241b18d0ef">
            <symbol
               overflow="visible"
               id="id-bb44f084-d430-4cb3-999f-34d0f17ae591">
              <path
                 style="stroke:none;stroke-width:0"
                 d=""
                 id="id-6bbbc84e-8f30-446c-92fc-c927a2f088a3" />
            </symbol>
            <symbol
               overflow="visible"
               id="id-56aed0c2-a134-43f8-8f1c-ef9f20f4d0d1">
              <path
                 style="stroke:none;stroke-width:0"
                 d="m 1.4375,-0.84375 c -0.25,0.390625 -0.46875,0.5625 -0.875,0.59375 -0.078125,0 -0.171875,0 -0.171875,0.140625 C 0.390625,-0.03125 0.453125,0 0.5,0 0.671875,0 0.90625,-0.03125 1.09375,-0.03125 1.3125,-0.03125 1.609375,0 1.8125,0 1.84375,0 1.953125,0 1.953125,-0.15625 1.953125,-0.25 1.859375,-0.25 1.828125,-0.25 1.78125,-0.265625 1.53125,-0.265625 1.53125,-0.453125 c 0,-0.09375 0.0625,-0.203125 0.09375,-0.265625 l 0.5625,-0.875 h 2 L 4.34375,-0.4375 C 4.328125,-0.359375 4.28125,-0.25 3.875,-0.25 c -0.09375,0 -0.1875,0 -0.1875,0.15625 C 3.6875,-0.0625 3.703125,0 3.796875,0 4,0 4.5,-0.03125 4.703125,-0.03125 c 0.125,0 0.28125,0.015625 0.40625,0.015625 C 5.234375,-0.015625 5.375,0 5.5,0 5.59375,0 5.640625,-0.0625 5.640625,-0.140625 5.640625,-0.25 5.5625,-0.25 5.453125,-0.25 c -0.40625,0 -0.421875,-0.0625 -0.4375,-0.21875 l -0.625,-4.3125 C 4.375,-4.921875 4.359375,-4.96875 4.234375,-4.96875 4.09375,-4.96875 4.0625,-4.90625 4,-4.8125 Z m 0.921875,-1 L 3.8125,-4.125 4.140625,-1.84375 Z m 0,0"
                 id="id-ddf2122f-d87f-4e0b-92d9-4b5bd73688cb" />
            </symbol>
            <symbol
               overflow="visible"
               id="id-95b4e4a0-de8f-4a4a-be32-ada88204731d">
              <path
                 style="stroke:none;stroke-width:0"
                 d="M 3.109375,-0.96875 C 3.078125,-1.375 2.84375,-3.078125 1.703125,-3.078125 1.296875,-3.078125 0.9375,-2.84375 0.75,-2.671875 0.328125,-2.28125 0.234375,-1.84375 0.234375,-1.8125 c 0,0.078125 0.09375,0.078125 0.109375,0.078125 0.09375,0 0.109375,-0.015625 0.140625,-0.125 0.140625,-0.40625 0.65625,-0.65625 1.125,-0.65625 1.125,0 1.265625,1.125 1.265625,1.828125 0,0.359375 -0.015625,0.421875 -0.046875,0.5 -0.15625,0.53125 -0.375,1.296875 -0.375,1.515625 0,0.078125 0.03125,0.15625 0.125,0.15625 0.046875,0 0.125,0 0.234375,-0.359375 C 2.90625,0.859375 3.03125,0.34375 3.09375,-0.15625 3.109375,-0.40625 3.5,-1.34375 3.65625,-1.671875 3.75,-1.890625 3.890625,-2.21875 4.21875,-2.828125 4.25,-2.859375 4.265625,-2.890625 4.265625,-2.921875 4.265625,-3 4.171875,-3 4.140625,-3 4.125,-3 4.0625,-3 4.046875,-2.96875 c -0.09375,0.140625 -0.625,1.140625 -0.9375,2 z m 0,0"
                 id="id-81665128-6ccb-4a15-8b65-2e42604194be" />
            </symbol>
            <symbol
               overflow="visible"
               id="id-931a200b-d5a9-4c29-af95-eb406fe55788">
              <path
                 style="stroke:none;stroke-width:0"
                 d="m 1.75,-2.875 c 0,-0.03125 0.015625,-0.0625 0.015625,-0.09375 0,-0.015625 0,-0.109375 -0.109375,-0.109375 -0.015625,0 -0.40625,0.046875 -0.453125,0.046875 C 1.0625,-3.03125 0.9375,-3.015625 0.8125,-3 c -0.109375,0 -0.203125,0.015625 -0.203125,0.15625 0,0.09375 0.09375,0.09375 0.1875,0.09375 0.328125,0 0.328125,0.046875 0.328125,0.109375 0,0.046875 -0.03125,0.1875 -0.0625,0.265625 L 0.71875,-0.96875 C 0.546875,-0.265625 0.515625,-0.125 0.515625,-0.09375 0.515625,0 0.609375,0 0.640625,0 H 0.75 C 1.375,-0.09375 2.265625,-0.421875 3,-1.09375 c 0.953125,-0.84375 1.09375,-1.75 1.09375,-1.75 0,-0.125 -0.09375,-0.234375 -0.234375,-0.234375 -0.25,0 -0.296875,0.203125 -0.359375,0.390625 -0.28125,1 -1.21875,2.0625 -2.40625,2.40625 z m 0,0"
                 id="id-bead1990-c166-4586-aa92-142796d8d44b" />
            </symbol>
            <symbol
               overflow="visible"
               id="id-e3ed5f26-f640-4d2d-8b81-4dabc2349fac">
              <path
                 style="stroke:none;stroke-width:0"
                 d=""
                 id="id-56fbe873-e0f4-4d35-b9af-eb8a2bb8c7ac" />
            </symbol>
            <symbol
               overflow="visible"
               id="id-2001fd30-143b-470d-b17f-ed03cbc062f2">
              <path
                 style="stroke:none;stroke-width:0"
                 d="M 2.46875,-5.21875 C 1.15625,-4.296875 0.796875,-2.8125 0.796875,-1.75 c 0,0.984375 0.296875,2.515625 1.671875,3.484375 0.0625,0 0.140625,0 0.140625,-0.078125 0,-0.046875 -0.015625,-0.0625 -0.0625,-0.109375 C 1.609375,0.703125 1.28125,-0.46875 1.28125,-1.734375 1.28125,-3.625 2,-4.546875 2.5625,-5.0625 2.59375,-5.09375 2.609375,-5.109375 2.609375,-5.140625 2.609375,-5.21875 2.53125,-5.21875 2.46875,-5.21875 Z m 0,0"
                 id="id-1e42d9de-af50-4634-a1f6-4ee30405a084" />
            </symbol>
            <symbol
               overflow="visible"
               id="id-f17e9f37-6e88-4d30-8b2f-eba0a8e81804">
              <path
                 style="stroke:none;stroke-width:0"
                 d="m 3.21875,-1.578125 h 2.140625 c 0.09375,0 0.25,0 0.25,-0.15625 0,-0.1875 -0.15625,-0.1875 -0.25,-0.1875 H 3.21875 V -4.0625 c 0,-0.078125 0,-0.25 -0.15625,-0.25 -0.171875,0 -0.171875,0.15625 -0.171875,0.25 v 2.140625 H 0.75 c -0.09375,0 -0.265625,0 -0.265625,0.171875 0,0.171875 0.15625,0.171875 0.265625,0.171875 H 2.890625 V 0.5625 c 0,0.09375 0,0.265625 0.15625,0.265625 0.171875,0 0.171875,-0.171875 0.171875,-0.265625 z m 0,0"
                 id="id-bd5224b4-a951-416c-9abf-767e4a364cdc" />
            </symbol>
            <symbol
               overflow="visible"
               id="id-0b2e6d3e-5590-4e1f-9d4a-85aa3413c6f3">
              <path
                 style="stroke:none;stroke-width:0"
                 d="m 0.625,-5.21875 c -0.046875,0 -0.125,0 -0.125,0.078125 0,0.03125 0.015625,0.046875 0.0625,0.109375 0.59375,0.546875 1.265625,1.484375 1.265625,3.28125 0,1.453125 -0.453125,2.5625 -1.203125,3.234375 -0.125,0.125 -0.125,0.125 -0.125,0.171875 0,0.03125 0.015625,0.078125 0.078125,0.078125 0.09375,0 0.75,-0.453125 1.21875,-1.328125 0.296875,-0.578125 0.5,-1.328125 0.5,-2.140625 C 2.296875,-2.71875 2,-4.25 0.625,-5.21875 Z m 0,0"
                 id="id-9dc5aeb8-be9e-4d67-addf-de4c7eb8fbee" />
            </symbol>
          </g>
        </defs>
        <g
           id="id-2af5dc7b-4f0c-408c-8302-263b8ceb8266"
           transform="translate(-149.906,-125.873)">
          <path
             style="fill:none;stroke:#000000;stroke-width:0.154892;stroke-linecap:butt;stroke-linejoin:miter;stroke-miterlimit:4;stroke-dasharray:none;stroke-opacity:1;marker-start:url(#Arrow2Mstart);marker-end:url(#Arrow1Mend)"
             d="m 148.76067,123.14298 v 14.39342 h 21.18655"
             id="path264"
             sodipodi:nodetypes="ccc" />
          <g
             transform="matrix(0.0911005,0,0,0.0911005,160.807,123.774)"
             ns7:version="1.7.1"
             ns7:texconverter="pdflatex"
             ns7:pdfconverter="inkscape"
             ns7:text="$\n\\left&lt;\\Delta x^2\\right&gt;_{t\\to\\infty} = \\frac{A}{\\gamma(\\nu+\\gamma)}\n$"
             ns7:preamble="C:\Users\liuzy\AppData\Roaming\inkscape\extensions\textext\default_packages.tex"
             ns7:scale="1.0"
             ns7:alignment="middle center"
             ns7:stroke-to-path="0"
             ns7:jacobian_sqrt="0.0546426"
             id="g2375"
             style="fill:#9cb4b0">
            <defs
               id="id-c99d80b7-4a66-42af-a436-04ea4f279c74">
              <g
                 id="id-cd0422d2-2f0f-4dc7-b9f7-66704d9fb2e6">
                <symbol
                   overflow="visible"
                   id="id-7e0376a0-47aa-4423-8a45-2886466b628b">
                  <path
                     style="stroke:none;stroke-width:0"
                     d=""
                     id="id-0366013f-3a14-4408-a1cc-d49358c6a727" />
                </symbol>
                <symbol
                   overflow="visible"
                   id="id-6b6754fd-6585-475f-ad60-94c6cc76d585">
                  <path
                     style="stroke:none;stroke-width:0"
                     d="M 3.5,11.34375 C 3.5625,11.5 3.59375,11.5625 3.71875,11.5625 c 0.109375,0 0.203125,-0.09375 0.203125,-0.203125 0,0 0,-0.0625 -0.0625,-0.1875 l -2.46875,-5.59375 2.46875,-5.59375 c 0.0625,-0.125 0.0625,-0.171875 0.0625,-0.1875 0,-0.109375 -0.09375,-0.203125 -0.203125,-0.203125 -0.125,0 -0.15625,0.09375 -0.21875,0.21875 L 1.03125,5.390625 c -0.046875,0.125 -0.046875,0.1875 -0.046875,0.1875 0,0.015625 0,0.0625 0.046875,0.1875 z m 0,0"
                     id="id-15c73710-9d12-434a-973c-7473a0176c3f" />
                </symbol>
                <symbol
                   overflow="visible"
                   id="id-864ea437-ac09-4e2f-b193-cf4ebb7519fb">
                  <path
                     style="stroke:none;stroke-width:0"
                     d="m 3.296875,5.578125 -2.453125,5.59375 c -0.0625,0.125 -0.0625,0.1875 -0.0625,0.1875 0,0.109375 0.09375,0.203125 0.203125,0.203125 0.125,0 0.15625,-0.07813 0.21875,-0.203125 L 3.65625,5.765625 c 0.0625,-0.125 0.0625,-0.171875 0.0625,-0.1875 0,0 0,-0.0625 -0.0625,-0.1875 l -2.453125,-5.5625 C 1.125,-0.34375 1.09375,-0.40625 0.984375,-0.40625 c -0.109375,0 -0.203125,0.09375 -0.203125,0.203125 0,0.015625 0,0.0625 0.0625,0.1875 z m 0,0"
                     id="id-6ec8b3d1-8c83-410b-8ed8-e45abfb51b08" />
                </symbol>
                <symbol
                   overflow="visible"
                   id="id-c2e96eed-12f8-4f38-9b17-9568b9c56b14">
                  <path
                     style="stroke:none;stroke-width:0"
                     d=""
                     id="id-7be8917e-580a-4ea6-9adc-c90c75f51435" />
                </symbol>
                <symbol
                   overflow="visible"
                   id="id-6cece839-96d3-4b2c-bb68-a2505169d88f">
                  <path
                     style="stroke:none;stroke-width:0"
                     d="m 4.40625,-6.953125 c -0.0625,-0.140625 -0.09375,-0.1875 -0.265625,-0.1875 -0.15625,0 -0.1875,0.046875 -0.25,0.1875 l -3.375,6.75 C 0.46875,-0.109375 0.46875,-0.09375 0.46875,-0.078125 0.46875,0 0.53125,0 0.6875,0 h 6.921875 c 0.15625,0 0.21875,0 0.21875,-0.078125 0,-0.015625 0,-0.03125 -0.046875,-0.125 z m -0.578125,0.8125 2.6875,5.390625 h -5.375 z m 0,0"
                     id="id-07228beb-0c85-4762-aaa1-1816bff2c591" />
                </symbol>
                <symbol
                   overflow="visible"
                   id="id-8863081f-2d96-4ff7-a909-a96e0315812d">
                  <path
                     style="stroke:none;stroke-width:0"
                     d="m 6.84375,-3.265625 c 0.15625,0 0.34375,0 0.34375,-0.1875 C 7.1875,-3.65625 7,-3.65625 6.859375,-3.65625 h -5.96875 c -0.140625,0 -0.328125,0 -0.328125,0.203125 0,0.1875 0.1875,0.1875 0.328125,0.1875 z m 0.015625,1.9375 c 0.140625,0 0.328125,0 0.328125,-0.203125 0,-0.1875 -0.1875,-0.1875 -0.34375,-0.1875 H 0.890625 c -0.140625,0 -0.328125,0 -0.328125,0.1875 0,0.203125 0.1875,0.203125 0.328125,0.203125 z m 0,0"
                     id="id-cdd38e19-4a09-4745-8640-a2e0d7328934" />
                </symbol>
                <symbol
                   overflow="visible"
                   id="id-cb188a97-1876-4e22-b627-1c623b5ae49a">
                  <path
                     style="stroke:none;stroke-width:0"
                     d=""
                     id="id-3ec097c7-adde-41c8-8a1d-d7e881753543" />
                </symbol>
                <symbol
                   overflow="visible"
                   id="id-06f1aa1a-2386-4f02-8a34-b820afee0c66">
                  <path
                     style="stroke:none;stroke-width:0"
                     d="M 3.328125,-3.015625 C 3.390625,-3.265625 3.625,-4.1875 4.3125,-4.1875 c 0.046875,0 0.296875,0 0.5,0.125 C 4.53125,-4 4.34375,-3.765625 4.34375,-3.515625 c 0,0.15625 0.109375,0.34375 0.375,0.34375 0.21875,0 0.53125,-0.171875 0.53125,-0.578125 0,-0.515625 -0.578125,-0.65625 -0.921875,-0.65625 -0.578125,0 -0.921875,0.53125 -1.046875,0.75 -0.25,-0.65625 -0.78125,-0.75 -1.078125,-0.75 -1.03125,0 -1.609375,1.28125 -1.609375,1.53125 0,0.109375 0.109375,0.109375 0.125,0.109375 0.078125,0 0.109375,-0.03125 0.125,-0.109375 0.34375,-1.0625 1,-1.3125 1.34375,-1.3125 0.1875,0 0.53125,0.09375 0.53125,0.671875 0,0.3125 -0.171875,0.96875 -0.53125,2.375 -0.15625,0.609375 -0.515625,1.03125 -0.953125,1.03125 -0.0625,0 -0.28125,0 -0.5,-0.125 0.25,-0.0625 0.46875,-0.265625 0.46875,-0.546875 0,-0.265625 -0.21875,-0.34375 -0.359375,-0.34375 -0.3125,0 -0.546875,0.25 -0.546875,0.578125 0,0.453125 0.484375,0.65625 0.921875,0.65625 0.671875,0 1.03125,-0.703125 1.046875,-0.75 0.125,0.359375 0.484375,0.75 1.078125,0.75 1.03125,0 1.59375,-1.28125 1.59375,-1.53125 0,-0.109375 -0.078125,-0.109375 -0.109375,-0.109375 -0.09375,0 -0.109375,0.046875 -0.140625,0.109375 -0.328125,1.078125 -1,1.3125 -1.3125,1.3125 -0.390625,0 -0.546875,-0.3125 -0.546875,-0.65625 0,-0.21875 0.046875,-0.4375 0.15625,-0.875 z m 0,0"
                     id="id-2fe05fad-46e7-47d6-a148-a03cd206de1b" />
                </symbol>
                <symbol
                   overflow="visible"
                   id="id-dbc9411a-dcc3-4509-91bb-e94e970d0191">
                  <path
                     style="stroke:none;stroke-width:0"
                     d=""
                     id="id-2f5bb335-e3ee-40da-b18f-ae68445af53d" />
                </symbol>
                <symbol
                   overflow="visible"
                   id="id-599f588c-9fab-4274-b6bf-5508fb19faf7">
                  <path
                     style="stroke:none;stroke-width:0"
                     d="M 3.515625,-1.265625 H 3.28125 c -0.015625,0.15625 -0.09375,0.5625 -0.1875,0.625 C 3.046875,-0.59375 2.515625,-0.59375 2.40625,-0.59375 H 1.125 c 0.734375,-0.640625 0.984375,-0.84375 1.390625,-1.171875 0.515625,-0.40625 1,-0.84375 1,-1.5 0,-0.84375 -0.734375,-1.359375 -1.625,-1.359375 -0.859375,0 -1.453125,0.609375 -1.453125,1.25 0,0.34375 0.296875,0.390625 0.375,0.390625 0.15625,0 0.359375,-0.125 0.359375,-0.375 0,-0.125 -0.046875,-0.375 -0.40625,-0.375 C 0.984375,-4.21875 1.453125,-4.375 1.78125,-4.375 c 0.703125,0 1.0625,0.546875 1.0625,1.109375 0,0.609375 -0.4375,1.078125 -0.65625,1.328125 L 0.515625,-0.265625 C 0.4375,-0.203125 0.4375,-0.1875 0.4375,0 h 2.875 z m 0,0"
                     id="id-48a8b808-2071-4fd3-907a-5c1230c66395" />
                </symbol>
                <symbol
                   overflow="visible"
                   id="id-9919d842-fd04-48a4-9c1a-bd29bc5ce69c">
                  <path
                     style="stroke:none;stroke-width:0"
                     d="M 2.46875,-5.21875 C 1.15625,-4.296875 0.796875,-2.8125 0.796875,-1.75 c 0,0.984375 0.296875,2.515625 1.671875,3.484375 0.0625,0 0.140625,0 0.140625,-0.078125 0,-0.046875 -0.015625,-0.0625 -0.0625,-0.109375 C 1.609375,0.703125 1.28125,-0.46875 1.28125,-1.734375 1.28125,-3.625 2,-4.546875 2.5625,-5.0625 2.59375,-5.09375 2.609375,-5.109375 2.609375,-5.140625 2.609375,-5.21875 2.53125,-5.21875 2.46875,-5.21875 Z m 0,0"
                     id="id-032b4eb0-202c-41df-9f78-a8238ad82f02" />
                </symbol>
                <symbol
                   overflow="visible"
                   id="id-ee874d96-be43-42ec-a1e8-3b58f2918760">
                  <path
                     style="stroke:none;stroke-width:0"
                     d="m 3.21875,-1.578125 h 2.140625 c 0.09375,0 0.25,0 0.25,-0.15625 0,-0.1875 -0.15625,-0.1875 -0.25,-0.1875 H 3.21875 V -4.0625 c 0,-0.078125 0,-0.25 -0.15625,-0.25 -0.171875,0 -0.171875,0.15625 -0.171875,0.25 v 2.140625 H 0.75 c -0.09375,0 -0.265625,0 -0.265625,0.171875 0,0.171875 0.15625,0.171875 0.265625,0.171875 H 2.890625 V 0.5625 c 0,0.09375 0,0.265625 0.15625,0.265625 0.171875,0 0.171875,-0.171875 0.171875,-0.265625 z m 0,0"
                     id="id-9025a137-b184-4d2f-b463-3798613c4393" />
                </symbol>
                <symbol
                   overflow="visible"
                   id="id-40fd26d5-d9ef-453d-9e66-e74c729e0e73">
                  <path
                     style="stroke:none;stroke-width:0"
                     d="m 0.625,-5.21875 c -0.046875,0 -0.125,0 -0.125,0.078125 0,0.03125 0.015625,0.046875 0.0625,0.109375 0.59375,0.546875 1.265625,1.484375 1.265625,3.28125 0,1.453125 -0.453125,2.5625 -1.203125,3.234375 -0.125,0.125 -0.125,0.125 -0.125,0.171875 0,0.03125 0.015625,0.078125 0.078125,0.078125 0.09375,0 0.75,-0.453125 1.21875,-1.328125 0.296875,-0.578125 0.5,-1.328125 0.5,-2.140625 C 2.296875,-2.71875 2,-4.25 0.625,-5.21875 Z m 0,0"
                     id="id-89f74106-aaca-40ea-95ed-2cffa1c17c5d" />
                </symbol>
                <symbol
                   overflow="visible"
                   id="id-e1a984d9-a928-4ba2-b5cf-04f0ce5427be">
                  <path
                     style="stroke:none;stroke-width:0"
                     d=""
                     id="id-2c7c64d0-1826-43f4-8c8b-f852994687d5" />
                </symbol>
                <symbol
                   overflow="visible"
                   id="id-4537f3f4-a45e-4cd9-a65e-508edc8baeb6">
                  <path
                     style="stroke:none;stroke-width:0"
                     d="m 1.71875,-2.75 h 0.703125 c 0.140625,0 0.21875,0 0.21875,-0.15625 C 2.640625,-3 2.5625,-3 2.4375,-3 H 1.78125 l 0.25,-1.03125 C 2.046875,-4.0625 2.0625,-4.109375 2.0625,-4.125 c 0,-0.140625 -0.109375,-0.234375 -0.25,-0.234375 -0.171875,0 -0.265625,0.125 -0.328125,0.296875 C 1.4375,-3.875 1.53125,-4.21875 1.21875,-3 H 0.515625 c -0.125,0 -0.21875,0 -0.21875,0.15625 C 0.296875,-2.75 0.375,-2.75 0.5,-2.75 H 1.15625 L 0.75,-1.109375 C 0.703125,-0.9375 0.640625,-0.6875 0.640625,-0.59375 c 0,0.40625 0.359375,0.65625 0.75,0.65625 0.78125,0 1.21875,-0.96875 1.21875,-1.0625 0,-0.09375 -0.09375,-0.09375 -0.109375,-0.09375 -0.09375,0 -0.09375,0.015625 -0.15625,0.140625 -0.1875,0.4375 -0.546875,0.828125 -0.921875,0.828125 -0.15625,0 -0.25,-0.09375 -0.25,-0.34375 0,-0.0625 0.03125,-0.21875 0.046875,-0.28125 z m 0,0"
                     id="id-5b7bd10f-28f5-4778-999c-67269494b79a" />
                </symbol>
                <symbol
                   overflow="visible"
                   id="id-441003ec-7895-4049-8327-8c58959c5b4e">
                  <path
                     style="stroke:none;stroke-width:0"
                     d="m 1.4375,-0.84375 c -0.25,0.390625 -0.46875,0.5625 -0.875,0.59375 -0.078125,0 -0.171875,0 -0.171875,0.140625 C 0.390625,-0.03125 0.453125,0 0.5,0 0.671875,0 0.90625,-0.03125 1.09375,-0.03125 1.3125,-0.03125 1.609375,0 1.8125,0 1.84375,0 1.953125,0 1.953125,-0.15625 1.953125,-0.25 1.859375,-0.25 1.828125,-0.25 1.78125,-0.265625 1.53125,-0.265625 1.53125,-0.453125 c 0,-0.09375 0.0625,-0.203125 0.09375,-0.265625 l 0.5625,-0.875 h 2 L 4.34375,-0.4375 C 4.328125,-0.359375 4.28125,-0.25 3.875,-0.25 c -0.09375,0 -0.1875,0 -0.1875,0.15625 C 3.6875,-0.0625 3.703125,0 3.796875,0 4,0 4.5,-0.03125 4.703125,-0.03125 c 0.125,0 0.28125,0.015625 0.40625,0.015625 C 5.234375,-0.015625 5.375,0 5.5,0 5.59375,0 5.640625,-0.0625 5.640625,-0.140625 5.640625,-0.25 5.5625,-0.25 5.453125,-0.25 c -0.40625,0 -0.421875,-0.0625 -0.4375,-0.21875 l -0.625,-4.3125 C 4.375,-4.921875 4.359375,-4.96875 4.234375,-4.96875 4.09375,-4.96875 4.0625,-4.90625 4,-4.8125 Z m 0.921875,-1 L 3.8125,-4.125 4.140625,-1.84375 Z m 0,0"
                     id="id-168c17f3-7705-4fde-845d-a65d51dad59f" />
                </symbol>
                <symbol
                   overflow="visible"
                   id="id-0701dfcf-1d37-4648-81c9-5a8e527dc816">
                  <path
                     style="stroke:none;stroke-width:0"
                     d="M 3.109375,-0.96875 C 3.078125,-1.375 2.84375,-3.078125 1.703125,-3.078125 1.296875,-3.078125 0.9375,-2.84375 0.75,-2.671875 0.328125,-2.28125 0.234375,-1.84375 0.234375,-1.8125 c 0,0.078125 0.09375,0.078125 0.109375,0.078125 0.09375,0 0.109375,-0.015625 0.140625,-0.125 0.140625,-0.40625 0.65625,-0.65625 1.125,-0.65625 1.125,0 1.265625,1.125 1.265625,1.828125 0,0.359375 -0.015625,0.421875 -0.046875,0.5 -0.15625,0.53125 -0.375,1.296875 -0.375,1.515625 0,0.078125 0.03125,0.15625 0.125,0.15625 0.046875,0 0.125,0 0.234375,-0.359375 C 2.90625,0.859375 3.03125,0.34375 3.09375,-0.15625 3.109375,-0.40625 3.5,-1.34375 3.65625,-1.671875 3.75,-1.890625 3.890625,-2.21875 4.21875,-2.828125 4.25,-2.859375 4.265625,-2.890625 4.265625,-2.921875 4.265625,-3 4.171875,-3 4.140625,-3 4.125,-3 4.0625,-3 4.046875,-2.96875 c -0.09375,0.140625 -0.625,1.140625 -0.9375,2 z m 0,0"
                     id="id-ac0651d5-4895-414f-9742-452fa35f6bf3" />
                </symbol>
                <symbol
                   overflow="visible"
                   id="id-bb4b88f5-c540-4149-bfe2-e46142122733">
                  <path
                     style="stroke:none;stroke-width:0"
                     d="m 1.75,-2.875 c 0,-0.03125 0.015625,-0.0625 0.015625,-0.09375 0,-0.015625 0,-0.109375 -0.109375,-0.109375 -0.015625,0 -0.40625,0.046875 -0.453125,0.046875 C 1.0625,-3.03125 0.9375,-3.015625 0.8125,-3 c -0.109375,0 -0.203125,0.015625 -0.203125,0.15625 0,0.09375 0.09375,0.09375 0.1875,0.09375 0.328125,0 0.328125,0.046875 0.328125,0.109375 0,0.046875 -0.03125,0.1875 -0.0625,0.265625 L 0.71875,-0.96875 C 0.546875,-0.265625 0.515625,-0.125 0.515625,-0.09375 0.515625,0 0.609375,0 0.640625,0 H 0.75 C 1.375,-0.09375 2.265625,-0.421875 3,-1.09375 c 0.953125,-0.84375 1.09375,-1.75 1.09375,-1.75 0,-0.125 -0.09375,-0.234375 -0.234375,-0.234375 -0.25,0 -0.296875,0.203125 -0.359375,0.390625 -0.28125,1 -1.21875,2.0625 -2.40625,2.40625 z m 0,0"
                     id="id-030c0a1c-3514-470d-9dac-c19f5415aa13" />
                </symbol>
                <symbol
                   overflow="visible"
                   id="id-97dc159f-b011-4753-bd5b-abde6948a6a8">
                  <path
                     style="stroke:none;stroke-width:0"
                     d=""
                     id="id-721781c3-4488-4ac3-8446-11d910ad14ff" />
                </symbol>
                <symbol
                   overflow="visible"
                   id="id-f3e00240-ccd5-474a-ae19-4c1a39173825">
                  <path
                     style="stroke:none;stroke-width:0"
                     d="m 6.40625,-1.578125 c -0.875,0.640625 -0.984375,1.5625 -0.984375,1.5625 0,0.109375 0.0625,0.109375 0.15625,0.109375 0.125,0 0.15625,0 0.1875,-0.125 0.046875,-0.171875 0.15625,-0.609375 0.515625,-1 0.40625,-0.421875 0.75,-0.53125 1.046875,-0.625 0.03125,-0.015625 0.0625,-0.046875 0.0625,-0.078125 0,-0.078125 -0.03125,-0.09375 -0.125,-0.125 C 6.265625,-2.171875 5.90625,-2.890625 5.75,-3.5 5.734375,-3.578125 5.671875,-3.578125 5.578125,-3.578125 c -0.09375,0 -0.15625,0 -0.15625,0.09375 0,0.015625 0.0625,0.484375 0.40625,0.96875 0.15625,0.234375 0.359375,0.4375 0.578125,0.59375 H 0.8125 c -0.109375,0 -0.28125,0 -0.28125,0.171875 0,0.171875 0.171875,0.171875 0.28125,0.171875 z m 0,0"
                     id="id-000a4b5d-549d-434f-ab02-e83dc72439b0" />
                </symbol>
                <symbol
                   overflow="visible"
                   id="id-e29a74d3-40de-4ad2-a336-4be4662db861">
                  <path
                     style="stroke:none;stroke-width:0"
                     d="m 4.03125,-1.90625 c -0.375,-0.4375 -0.484375,-0.546875 -0.75,-0.734375 -0.421875,-0.3125 -0.875,-0.4375 -1.25,-0.4375 -0.875,0 -1.5,0.75 -1.5,1.578125 0,0.8125 0.609375,1.5625 1.46875,1.5625 0.96875,0 1.65625,-0.78125 1.90625,-1.15625 0.359375,0.4375 0.484375,0.546875 0.734375,0.734375 0.4375,0.3125 0.875,0.421875 1.265625,0.421875 0.859375,0 1.484375,-0.734375 1.484375,-1.5625 0,-0.828125 -0.59375,-1.578125 -1.46875,-1.578125 -0.96875,0 -1.640625,0.796875 -1.890625,1.171875 z m 0.21875,0.25 c 0.28125,-0.453125 0.890625,-1.15625 1.734375,-1.15625 0.71875,0 1.21875,0.640625 1.21875,1.3125 0,0.65625 -0.546875,1.1875 -1.1875,1.1875 -0.65625,0 -1.09375,-0.53125 -1.765625,-1.34375 z M 3.671875,-1.359375 C 3.40625,-0.90625 2.796875,-0.1875 1.9375,-0.1875 c -0.71875,0 -1.203125,-0.640625 -1.203125,-1.3125 0,-0.671875 0.546875,-1.1875 1.1875,-1.1875 0.640625,0 1.09375,0.53125 1.75,1.328125 z m 0,0"
                     id="id-794aa7c1-9af5-4a64-90ca-e5628e0adf29" />
                </symbol>
              </g>
            </defs>
            <g
               id="id-34d7d43f-9456-4ecd-aa90-80a255bbe797"
               transform="translate(-149.696,-125.873)"
               style="fill:#9cb4b0">
              <g
                 id="g8635">
                <g
                   style="fill:#9cb4b0;fill-opacity:1"
                   id="id-2b8e4530-71d0-467d-9a7c-4b00b6fe255c">
                  <g
                     transform="translate(148.712,126.695)"
                     id="g2311"
                     style="fill:#9cb4b0">
                    <path
                       style="fill:#9cb4b0;stroke:none;stroke-width:0"
                       d="M 3.5,11.34375 C 3.5625,11.5 3.59375,11.5625 3.71875,11.5625 c 0.109375,0 0.203125,-0.09375 0.203125,-0.203125 0,0 0,-0.0625 -0.0625,-0.1875 l -2.46875,-5.59375 2.46875,-5.59375 c 0.0625,-0.125 0.0625,-0.171875 0.0625,-0.1875 0,-0.109375 -0.09375,-0.203125 -0.203125,-0.203125 -0.125,0 -0.15625,0.09375 -0.21875,0.21875 L 1.03125,5.390625 c -0.046875,0.125 -0.046875,0.1875 -0.046875,0.1875 0,0.015625 0,0.0625 0.046875,0.1875 z m 0,0"
                       id="id-be03c998-f511-4412-b4ac-9235fc9fd9d6" />
                  </g>
                </g>
                <g
                   style="fill:#9cb4b0;fill-opacity:1"
                   id="id-cbc5af09-115a-4ed4-994a-bf4e9bf5110d">
                  <g
                     transform="translate(153.417,134.765)"
                     id="g2315"
                     style="fill:#9cb4b0">
                    <path
                       style="fill:#9cb4b0;stroke:none;stroke-width:0"
                       d="m 4.40625,-6.953125 c -0.0625,-0.140625 -0.09375,-0.1875 -0.265625,-0.1875 -0.15625,0 -0.1875,0.046875 -0.25,0.1875 l -3.375,6.75 C 0.46875,-0.109375 0.46875,-0.09375 0.46875,-0.078125 0.46875,0 0.53125,0 0.6875,0 h 6.921875 c 0.15625,0 0.21875,0 0.21875,-0.078125 0,-0.015625 0,-0.03125 -0.046875,-0.125 z m -0.578125,0.8125 2.6875,5.390625 h -5.375 z m 0,0"
                       id="id-14dc9a2a-86b7-4c40-b13d-582ddce95742" />
                  </g>
                </g>
                <g
                   style="fill:#9cb4b0;fill-opacity:1"
                   id="id-f299cbc8-7126-408a-b673-0d6e9e605428">
                  <g
                     transform="translate(161.719,134.765)"
                     id="g2319"
                     style="fill:#9cb4b0">
                    <path
                       style="fill:#9cb4b0;stroke:none;stroke-width:0"
                       d="M 3.328125,-3.015625 C 3.390625,-3.265625 3.625,-4.1875 4.3125,-4.1875 c 0.046875,0 0.296875,0 0.5,0.125 C 4.53125,-4 4.34375,-3.765625 4.34375,-3.515625 c 0,0.15625 0.109375,0.34375 0.375,0.34375 0.21875,0 0.53125,-0.171875 0.53125,-0.578125 0,-0.515625 -0.578125,-0.65625 -0.921875,-0.65625 -0.578125,0 -0.921875,0.53125 -1.046875,0.75 -0.25,-0.65625 -0.78125,-0.75 -1.078125,-0.75 -1.03125,0 -1.609375,1.28125 -1.609375,1.53125 0,0.109375 0.109375,0.109375 0.125,0.109375 0.078125,0 0.109375,-0.03125 0.125,-0.109375 0.34375,-1.0625 1,-1.3125 1.34375,-1.3125 0.1875,0 0.53125,0.09375 0.53125,0.671875 0,0.3125 -0.171875,0.96875 -0.53125,2.375 -0.15625,0.609375 -0.515625,1.03125 -0.953125,1.03125 -0.0625,0 -0.28125,0 -0.5,-0.125 0.25,-0.0625 0.46875,-0.265625 0.46875,-0.546875 0,-0.265625 -0.21875,-0.34375 -0.359375,-0.34375 -0.3125,0 -0.546875,0.25 -0.546875,0.578125 0,0.453125 0.484375,0.65625 0.921875,0.65625 0.671875,0 1.03125,-0.703125 1.046875,-0.75 0.125,0.359375 0.484375,0.75 1.078125,0.75 1.03125,0 1.59375,-1.28125 1.59375,-1.53125 0,-0.109375 -0.078125,-0.109375 -0.109375,-0.109375 -0.09375,0 -0.109375,0.046875 -0.140625,0.109375 -0.328125,1.078125 -1,1.3125 -1.3125,1.3125 -0.390625,0 -0.546875,-0.3125 -0.546875,-0.65625 0,-0.21875 0.046875,-0.4375 0.15625,-0.875 z m 0,0"
                       id="id-1dc83441-c42b-43b3-9b84-cf3d3436c78f" />
                  </g>
                </g>
                <g
                   style="fill:#9cb4b0;fill-opacity:1"
                   id="id-230953f3-dcd9-430e-b95f-7777ae7f70cb">
                  <g
                     transform="translate(167.413,131.149)"
                     id="g2323"
                     style="fill:#9cb4b0">
                    <path
                       style="fill:#9cb4b0;stroke:none;stroke-width:0"
                       d="M 3.515625,-1.265625 H 3.28125 c -0.015625,0.15625 -0.09375,0.5625 -0.1875,0.625 C 3.046875,-0.59375 2.515625,-0.59375 2.40625,-0.59375 H 1.125 c 0.734375,-0.640625 0.984375,-0.84375 1.390625,-1.171875 0.515625,-0.40625 1,-0.84375 1,-1.5 0,-0.84375 -0.734375,-1.359375 -1.625,-1.359375 -0.859375,0 -1.453125,0.609375 -1.453125,1.25 0,0.34375 0.296875,0.390625 0.375,0.390625 0.15625,0 0.359375,-0.125 0.359375,-0.375 0,-0.125 -0.046875,-0.375 -0.40625,-0.375 C 0.984375,-4.21875 1.453125,-4.375 1.78125,-4.375 c 0.703125,0 1.0625,0.546875 1.0625,1.109375 0,0.609375 -0.4375,1.078125 -0.65625,1.328125 L 0.515625,-0.265625 C 0.4375,-0.203125 0.4375,-0.1875 0.4375,0 h 2.875 z m 0,0"
                       id="id-2f60e7ab-2d35-44e8-8eba-623ca6bc8fe4" />
                  </g>
                </g>
                <g
                   style="fill:#9cb4b0;fill-opacity:1"
                   id="id-129e652a-d9b3-4f71-a6ca-540aad4c23c7">
                  <g
                     transform="translate(171.882,126.695)"
                     id="g2327"
                     style="fill:#9cb4b0">
                    <path
                       style="fill:#9cb4b0;stroke:none;stroke-width:0"
                       d="m 3.296875,5.578125 -2.453125,5.59375 c -0.0625,0.125 -0.0625,0.1875 -0.0625,0.1875 0,0.109375 0.09375,0.203125 0.203125,0.203125 0.125,0 0.15625,-0.07813 0.21875,-0.203125 L 3.65625,5.765625 c 0.0625,-0.125 0.0625,-0.171875 0.0625,-0.1875 0,0 0,-0.0625 -0.0625,-0.1875 l -2.453125,-5.5625 C 1.125,-0.34375 1.09375,-0.40625 0.984375,-0.40625 c -0.109375,0 -0.203125,0.09375 -0.203125,0.203125 0,0.015625 0,0.0625 0.0625,0.1875 z m 0,0"
                       id="id-8095326b-fc7c-45ba-ad29-fa25517719b6" />
                  </g>
                </g>
                <g
                   style="fill:#9cb4b0;fill-opacity:1"
                   id="id-6e14b92f-5ca2-424c-ba97-7c9409686505">
                  <g
                     transform="translate(176.587,138.75)"
                     id="g2331"
                     style="fill:#9cb4b0">
                    <path
                       style="fill:#9cb4b0;stroke:none;stroke-width:0"
                       d="m 1.71875,-2.75 h 0.703125 c 0.140625,0 0.21875,0 0.21875,-0.15625 C 2.640625,-3 2.5625,-3 2.4375,-3 H 1.78125 l 0.25,-1.03125 C 2.046875,-4.0625 2.0625,-4.109375 2.0625,-4.125 c 0,-0.140625 -0.109375,-0.234375 -0.25,-0.234375 -0.171875,0 -0.265625,0.125 -0.328125,0.296875 C 1.4375,-3.875 1.53125,-4.21875 1.21875,-3 H 0.515625 c -0.125,0 -0.21875,0 -0.21875,0.15625 C 0.296875,-2.75 0.375,-2.75 0.5,-2.75 H 1.15625 L 0.75,-1.109375 C 0.703125,-0.9375 0.640625,-0.6875 0.640625,-0.59375 c 0,0.40625 0.359375,0.65625 0.75,0.65625 0.78125,0 1.21875,-0.96875 1.21875,-1.0625 0,-0.09375 -0.09375,-0.09375 -0.109375,-0.09375 -0.09375,0 -0.09375,0.015625 -0.15625,0.140625 -0.1875,0.4375 -0.546875,0.828125 -0.921875,0.828125 -0.15625,0 -0.25,-0.09375 -0.25,-0.34375 0,-0.0625 0.03125,-0.21875 0.046875,-0.28125 z m 0,0"
                       id="id-0867b76d-862e-479a-b202-6fd41b77414f" />
                  </g>
                </g>
                <g
                   style="fill:#9cb4b0;fill-opacity:1"
                   id="id-38609b5b-a6cc-4a40-a36a-25c381a4ee28">
                  <g
                     transform="translate(179.597,138.75)"
                     id="g2335"
                     style="fill:#9cb4b0">
                    <path
                       style="fill:#9cb4b0;stroke:none;stroke-width:0"
                       d="m 6.40625,-1.578125 c -0.875,0.640625 -0.984375,1.5625 -0.984375,1.5625 0,0.109375 0.0625,0.109375 0.15625,0.109375 0.125,0 0.15625,0 0.1875,-0.125 0.046875,-0.171875 0.15625,-0.609375 0.515625,-1 0.40625,-0.421875 0.75,-0.53125 1.046875,-0.625 0.03125,-0.015625 0.0625,-0.046875 0.0625,-0.078125 0,-0.078125 -0.03125,-0.09375 -0.125,-0.125 C 6.265625,-2.171875 5.90625,-2.890625 5.75,-3.5 5.734375,-3.578125 5.671875,-3.578125 5.578125,-3.578125 c -0.09375,0 -0.15625,0 -0.15625,0.09375 0,0.015625 0.0625,0.484375 0.40625,0.96875 0.15625,0.234375 0.359375,0.4375 0.578125,0.59375 H 0.8125 c -0.109375,0 -0.28125,0 -0.28125,0.171875 0,0.171875 0.171875,0.171875 0.28125,0.171875 z m 0,0"
                       id="id-de4de8c1-281d-465c-a81a-f5d698e4dbf8" />
                  </g>
                  <g
                     transform="translate(187.539,138.75)"
                     id="g2338"
                     style="fill:#9cb4b0">
                    <path
                       style="fill:#9cb4b0;stroke:none;stroke-width:0"
                       d="m 4.03125,-1.90625 c -0.375,-0.4375 -0.484375,-0.546875 -0.75,-0.734375 -0.421875,-0.3125 -0.875,-0.4375 -1.25,-0.4375 -0.875,0 -1.5,0.75 -1.5,1.578125 0,0.8125 0.609375,1.5625 1.46875,1.5625 0.96875,0 1.65625,-0.78125 1.90625,-1.15625 0.359375,0.4375 0.484375,0.546875 0.734375,0.734375 0.4375,0.3125 0.875,0.421875 1.265625,0.421875 0.859375,0 1.484375,-0.734375 1.484375,-1.5625 0,-0.828125 -0.59375,-1.578125 -1.46875,-1.578125 -0.96875,0 -1.640625,0.796875 -1.890625,1.171875 z m 0.21875,0.25 c 0.28125,-0.453125 0.890625,-1.15625 1.734375,-1.15625 0.71875,0 1.21875,0.640625 1.21875,1.3125 0,0.65625 -0.546875,1.1875 -1.1875,1.1875 -0.65625,0 -1.09375,-0.53125 -1.765625,-1.34375 z M 3.671875,-1.359375 C 3.40625,-0.90625 2.796875,-0.1875 1.9375,-0.1875 c -0.71875,0 -1.203125,-0.640625 -1.203125,-1.3125 0,-0.671875 0.546875,-1.1875 1.1875,-1.1875 0.640625,0 1.09375,0.53125 1.75,1.328125 z m 0,0"
                       id="id-8674a23a-bf86-4664-b03a-fda1bdb30af9" />
                  </g>
                </g>
                <g
                   style="fill:#9cb4b0;fill-opacity:1"
                   id="id-69562233-fd62-4eae-8be6-4be26e5e5c40">
                  <g
                     transform="translate(198.747,134.765)"
                     id="g2342"
                     style="fill:#9cb4b0">
                    <path
                       style="fill:#9cb4b0;stroke:none;stroke-width:0"
                       d="m 6.84375,-3.265625 c 0.15625,0 0.34375,0 0.34375,-0.1875 C 7.1875,-3.65625 7,-3.65625 6.859375,-3.65625 h -5.96875 c -0.140625,0 -0.328125,0 -0.328125,0.203125 0,0.1875 0.1875,0.1875 0.328125,0.1875 z m 0.015625,1.9375 c 0.140625,0 0.328125,0 0.328125,-0.203125 0,-0.1875 -0.1875,-0.1875 -0.34375,-0.1875 H 0.890625 c -0.140625,0 -0.328125,0 -0.328125,0.1875 0,0.203125 0.1875,0.203125 0.328125,0.203125 z m 0,0"
                       id="id-c48466da-8791-4936-bda1-f281709f92c5" />
                  </g>
                </g>
                <g
                   style="fill:#9cb4b0;fill-opacity:1"
                   id="id-7a71be63-7c0e-4a85-8203-777e1d54ad32">
                  <g
                     transform="translate(220.477,130.842)"
                     id="g2346"
                     style="fill:#9cb4b0">
                    <path
                       style="fill:#9cb4b0;stroke:none;stroke-width:0"
                       d="m 1.4375,-0.84375 c -0.25,0.390625 -0.46875,0.5625 -0.875,0.59375 -0.078125,0 -0.171875,0 -0.171875,0.140625 C 0.390625,-0.03125 0.453125,0 0.5,0 0.671875,0 0.90625,-0.03125 1.09375,-0.03125 1.3125,-0.03125 1.609375,0 1.8125,0 1.84375,0 1.953125,0 1.953125,-0.15625 1.953125,-0.25 1.859375,-0.25 1.828125,-0.25 1.78125,-0.265625 1.53125,-0.265625 1.53125,-0.453125 c 0,-0.09375 0.0625,-0.203125 0.09375,-0.265625 l 0.5625,-0.875 h 2 L 4.34375,-0.4375 C 4.328125,-0.359375 4.28125,-0.25 3.875,-0.25 c -0.09375,0 -0.1875,0 -0.1875,0.15625 C 3.6875,-0.0625 3.703125,0 3.796875,0 4,0 4.5,-0.03125 4.703125,-0.03125 c 0.125,0 0.28125,0.015625 0.40625,0.015625 C 5.234375,-0.015625 5.375,0 5.5,0 5.59375,0 5.640625,-0.0625 5.640625,-0.140625 5.640625,-0.25 5.5625,-0.25 5.453125,-0.25 c -0.40625,0 -0.421875,-0.0625 -0.4375,-0.21875 l -0.625,-4.3125 C 4.375,-4.921875 4.359375,-4.96875 4.234375,-4.96875 4.09375,-4.96875 4.0625,-4.90625 4,-4.8125 Z m 0.921875,-1 L 3.8125,-4.125 4.140625,-1.84375 Z m 0,0"
                       id="id-9d6f9b69-bb28-4040-8d82-08ecd28ae7c9" />
                  </g>
                </g>
                <path
                   style="fill:#9cb4b0;stroke:#9cb4b0;stroke-width:0.398;stroke-linecap:butt;stroke-linejoin:miter;stroke-miterlimit:10;stroke-opacity:1"
                   d="M 0.0019375,5.625e-4 H 26.029281"
                   transform="matrix(1,0,0,-1,210.459,132.274)"
                   id="id-258816fa-84fd-4d6a-bd07-8c4b2f600b43" />
                <g
                   style="fill:#9cb4b0;fill-opacity:1"
                   id="id-d5e17007-bc16-444a-81d8-f9d39196e35c">
                  <g
                     transform="translate(210.459,138.2)"
                     id="g2351"
                     style="fill:#9cb4b0">
                    <path
                       style="fill:#9cb4b0;stroke:none;stroke-width:0"
                       d="M 3.109375,-0.96875 C 3.078125,-1.375 2.84375,-3.078125 1.703125,-3.078125 1.296875,-3.078125 0.9375,-2.84375 0.75,-2.671875 0.328125,-2.28125 0.234375,-1.84375 0.234375,-1.8125 c 0,0.078125 0.09375,0.078125 0.109375,0.078125 0.09375,0 0.109375,-0.015625 0.140625,-0.125 0.140625,-0.40625 0.65625,-0.65625 1.125,-0.65625 1.125,0 1.265625,1.125 1.265625,1.828125 0,0.359375 -0.015625,0.421875 -0.046875,0.5 -0.15625,0.53125 -0.375,1.296875 -0.375,1.515625 0,0.078125 0.03125,0.15625 0.125,0.15625 0.046875,0 0.125,0 0.234375,-0.359375 C 2.90625,0.859375 3.03125,0.34375 3.09375,-0.15625 3.109375,-0.40625 3.5,-1.34375 3.65625,-1.671875 3.75,-1.890625 3.890625,-2.21875 4.21875,-2.828125 4.25,-2.859375 4.265625,-2.890625 4.265625,-2.921875 4.265625,-3 4.171875,-3 4.140625,-3 4.125,-3 4.0625,-3 4.046875,-2.96875 c -0.09375,0.140625 -0.625,1.140625 -0.9375,2 z m 0,0"
                       id="id-8b651a3c-30e8-4b36-bd62-0bfa39bbfd4f" />
                  </g>
                </g>
                <g
                   style="fill:#9cb4b0;fill-opacity:1"
                   id="id-355358e8-8db9-4ce4-87b2-57ff6f3c91d4">
                  <g
                     transform="translate(215.072,138.2)"
                     id="g2355"
                     style="fill:#9cb4b0">
                    <path
                       style="fill:#9cb4b0;stroke:none;stroke-width:0"
                       d="M 2.46875,-5.21875 C 1.15625,-4.296875 0.796875,-2.8125 0.796875,-1.75 c 0,0.984375 0.296875,2.515625 1.671875,3.484375 0.0625,0 0.140625,0 0.140625,-0.078125 0,-0.046875 -0.015625,-0.0625 -0.0625,-0.109375 C 1.609375,0.703125 1.28125,-0.46875 1.28125,-1.734375 1.28125,-3.625 2,-4.546875 2.5625,-5.0625 2.59375,-5.09375 2.609375,-5.109375 2.609375,-5.140625 2.609375,-5.21875 2.53125,-5.21875 2.46875,-5.21875 Z m 0,0"
                       id="id-3b4f1c78-1a74-4606-b004-11fccf805c35" />
                  </g>
                </g>
                <g
                   style="fill:#9cb4b0;fill-opacity:1"
                   id="id-c58d9663-6a91-41ef-8668-3bdf5654be26">
                  <g
                     transform="translate(218.186,138.2)"
                     id="g2359"
                     style="fill:#9cb4b0">
                    <path
                       style="fill:#9cb4b0;stroke:none;stroke-width:0"
                       d="m 1.75,-2.875 c 0,-0.03125 0.015625,-0.0625 0.015625,-0.09375 0,-0.015625 0,-0.109375 -0.109375,-0.109375 -0.015625,0 -0.40625,0.046875 -0.453125,0.046875 C 1.0625,-3.03125 0.9375,-3.015625 0.8125,-3 c -0.109375,0 -0.203125,0.015625 -0.203125,0.15625 0,0.09375 0.09375,0.09375 0.1875,0.09375 0.328125,0 0.328125,0.046875 0.328125,0.109375 0,0.046875 -0.03125,0.1875 -0.0625,0.265625 L 0.71875,-0.96875 C 0.546875,-0.265625 0.515625,-0.125 0.515625,-0.09375 0.515625,0 0.609375,0 0.640625,0 H 0.75 C 1.375,-0.09375 2.265625,-0.421875 3,-1.09375 c 0.953125,-0.84375 1.09375,-1.75 1.09375,-1.75 0,-0.125 -0.09375,-0.234375 -0.234375,-0.234375 -0.25,0 -0.296875,0.203125 -0.359375,0.390625 -0.28125,1 -1.21875,2.0625 -2.40625,2.40625 z m 0,0"
                       id="id-4342de01-4e30-4fd6-a445-ac6adb8874da" />
                  </g>
                </g>
                <g
                   style="fill:#9cb4b0;fill-opacity:1"
                   id="id-711c06dc-81df-4408-ab0b-b2fbc307b405">
                  <g
                     transform="translate(222.645,138.2)"
                     id="g2363"
                     style="fill:#9cb4b0">
                    <path
                       style="fill:#9cb4b0;stroke:none;stroke-width:0"
                       d="m 3.21875,-1.578125 h 2.140625 c 0.09375,0 0.25,0 0.25,-0.15625 0,-0.1875 -0.15625,-0.1875 -0.25,-0.1875 H 3.21875 V -4.0625 c 0,-0.078125 0,-0.25 -0.15625,-0.25 -0.171875,0 -0.171875,0.15625 -0.171875,0.25 v 2.140625 H 0.75 c -0.09375,0 -0.265625,0 -0.265625,0.171875 0,0.171875 0.15625,0.171875 0.265625,0.171875 H 2.890625 V 0.5625 c 0,0.09375 0,0.265625 0.15625,0.265625 0.171875,0 0.171875,-0.171875 0.171875,-0.265625 z m 0,0"
                       id="id-f6fe415a-6c23-4335-a9f8-d3ecd0f4e3f1" />
                  </g>
                </g>
                <g
                   style="fill:#9cb4b0;fill-opacity:1"
                   id="id-a000b6ab-af3c-4c78-a452-6d0b067abf57">
                  <g
                     transform="translate(228.761,138.2)"
                     id="g2367"
                     style="fill:#9cb4b0">
                    <path
                       style="fill:#9cb4b0;stroke:none;stroke-width:0"
                       d="M 3.109375,-0.96875 C 3.078125,-1.375 2.84375,-3.078125 1.703125,-3.078125 1.296875,-3.078125 0.9375,-2.84375 0.75,-2.671875 0.328125,-2.28125 0.234375,-1.84375 0.234375,-1.8125 c 0,0.078125 0.09375,0.078125 0.109375,0.078125 0.09375,0 0.109375,-0.015625 0.140625,-0.125 0.140625,-0.40625 0.65625,-0.65625 1.125,-0.65625 1.125,0 1.265625,1.125 1.265625,1.828125 0,0.359375 -0.015625,0.421875 -0.046875,0.5 -0.15625,0.53125 -0.375,1.296875 -0.375,1.515625 0,0.078125 0.03125,0.15625 0.125,0.15625 0.046875,0 0.125,0 0.234375,-0.359375 C 2.90625,0.859375 3.03125,0.34375 3.09375,-0.15625 3.109375,-0.40625 3.5,-1.34375 3.65625,-1.671875 3.75,-1.890625 3.890625,-2.21875 4.21875,-2.828125 4.25,-2.859375 4.265625,-2.890625 4.265625,-2.921875 4.265625,-3 4.171875,-3 4.140625,-3 4.125,-3 4.0625,-3 4.046875,-2.96875 c -0.09375,0.140625 -0.625,1.140625 -0.9375,2 z m 0,0"
                       id="id-cbfd1de2-f4a5-4a4e-bb61-8c09e63a13d2" />
                  </g>
                </g>
                <g
                   style="fill:#9cb4b0;fill-opacity:1"
                   id="id-024b4554-1f63-4b8c-800a-196efa568532">
                  <g
                     transform="translate(233.374,138.2)"
                     id="g2371"
                     style="fill:#9cb4b0">
                    <path
                       style="fill:#9cb4b0;stroke:none;stroke-width:0"
                       d="m 0.625,-5.21875 c -0.046875,0 -0.125,0 -0.125,0.078125 0,0.03125 0.015625,0.046875 0.0625,0.109375 0.59375,0.546875 1.265625,1.484375 1.265625,3.28125 0,1.453125 -0.453125,2.5625 -1.203125,3.234375 -0.125,0.125 -0.125,0.125 -0.125,0.171875 0,0.03125 0.015625,0.078125 0.078125,0.078125 0.09375,0 0.75,-0.453125 1.21875,-1.328125 0.296875,-0.578125 0.5,-1.328125 0.5,-2.140625 C 2.296875,-2.71875 2,-4.25 0.625,-5.21875 Z m 0,0"
                       id="id-f476d9fe-3c21-4ef1-a514-f32ce3e11862" />
                  </g>
                </g>
                <g
                   transform="matrix(1.191353,0,0,1.191353,26.775436,121.5926)"
                   ns7:version="1.7.1"
                   ns7:texconverter="pdflatex"
                   ns7:pdfconverter="inkscape"
                   ns7:text="$\\left&lt;\\Delta x^2\\right&gt;$"
                   ns7:preamble="C:\Users\liuzy\AppData\Roaming\inkscape\extensions\textext\default_packages.tex"
                   ns7:scale="1.0"
                   ns7:alignment="middle center"
                   ns7:stroke-to-path="0"
                   ns7:jacobian_sqrt="0.599806"
                   id="g7788">
                  <defs
                     id="id-3093d492-d840-4f5a-92f9-dd8319f1be11">
                    <g
                       id="id-84f22946-f3bd-410a-ab60-33dac34fc2b1">
                      <symbol
                         overflow="visible"
                         id="id-dfcacc1c-ea27-49d9-afb7-f724d5ee03c1">
                        <path
                           style="stroke:none;stroke-width:0"
                           d=""
                           id="id-5ca483f9-0e25-4458-a43f-51e0b8eb719a" />
                      </symbol>
                      <symbol
                         overflow="visible"
                         id="id-0e8dc86b-7da6-4703-ad5f-bbea0d2ca7fa">
                        <path
                           style="stroke:none;stroke-width:0"
                           d="M 3.5,11.34375 C 3.5625,11.5 3.59375,11.5625 3.71875,11.5625 c 0.109375,0 0.203125,-0.09375 0.203125,-0.203125 0,0 0,-0.0625 -0.0625,-0.1875 l -2.46875,-5.59375 2.46875,-5.59375 c 0.0625,-0.125 0.0625,-0.171875 0.0625,-0.1875 0,-0.109375 -0.09375,-0.203125 -0.203125,-0.203125 -0.125,0 -0.15625,0.09375 -0.21875,0.21875 L 1.03125,5.390625 c -0.046875,0.125 -0.046875,0.1875 -0.046875,0.1875 0,0.015625 0,0.0625 0.046875,0.1875 z m 0,0"
                           id="id-8343e71f-ba99-4966-aa0d-2245ec763a74" />
                      </symbol>
                      <symbol
                         overflow="visible"
                         id="id-2520d411-b9d2-476e-8553-5c933f52b3ea">
                        <path
                           style="stroke:none;stroke-width:0"
                           d="m 3.296875,5.578125 -2.453125,5.59375 c -0.0625,0.125 -0.0625,0.1875 -0.0625,0.1875 0,0.109375 0.09375,0.203125 0.203125,0.203125 0.125,0 0.15625,-0.07813 0.21875,-0.203125 L 3.65625,5.765625 c 0.0625,-0.125 0.0625,-0.171875 0.0625,-0.1875 0,0 0,-0.0625 -0.0625,-0.1875 l -2.453125,-5.5625 C 1.125,-0.34375 1.09375,-0.40625 0.984375,-0.40625 c -0.109375,0 -0.203125,0.09375 -0.203125,0.203125 0,0.015625 0,0.0625 0.0625,0.1875 z m 0,0"
                           id="id-8b9943b6-a1f2-4b8b-b302-4c84006bd42e" />
                      </symbol>
                      <symbol
                         overflow="visible"
                         id="id-f174d437-767e-4651-9196-c45b5d1a27a0">
                        <path
                           style="stroke:none;stroke-width:0"
                           d=""
                           id="id-933e1f5b-fb3e-47f5-bfbd-9fc286e17912" />
                      </symbol>
                      <symbol
                         overflow="visible"
                         id="id-b2f04039-e749-44ff-b2dd-81f68800a1a5">
                        <path
                           style="stroke:none;stroke-width:0"
                           d="m 4.40625,-6.953125 c -0.0625,-0.140625 -0.09375,-0.1875 -0.265625,-0.1875 -0.15625,0 -0.1875,0.046875 -0.25,0.1875 l -3.375,6.75 C 0.46875,-0.109375 0.46875,-0.09375 0.46875,-0.078125 0.46875,0 0.53125,0 0.6875,0 h 6.921875 c 0.15625,0 0.21875,0 0.21875,-0.078125 0,-0.015625 0,-0.03125 -0.046875,-0.125 z m -0.578125,0.8125 2.6875,5.390625 h -5.375 z m 0,0"
                           id="id-b2f6ab4b-2e4c-46dd-9e62-99ece383d71f" />
                      </symbol>
                      <symbol
                         overflow="visible"
                         id="id-6693df56-75f5-46f6-ac9f-c5c8433a5960">
                        <path
                           style="stroke:none;stroke-width:0"
                           d=""
                           id="id-3425234d-925a-43b0-9080-33aed9b36a64" />
                      </symbol>
                      <symbol
                         overflow="visible"
                         id="id-938f0b2d-dace-48fb-945a-372ce7344f9d">
                        <path
                           style="stroke:none;stroke-width:0"
                           d="M 3.328125,-3.015625 C 3.390625,-3.265625 3.625,-4.1875 4.3125,-4.1875 c 0.046875,0 0.296875,0 0.5,0.125 C 4.53125,-4 4.34375,-3.765625 4.34375,-3.515625 c 0,0.15625 0.109375,0.34375 0.375,0.34375 0.21875,0 0.53125,-0.171875 0.53125,-0.578125 0,-0.515625 -0.578125,-0.65625 -0.921875,-0.65625 -0.578125,0 -0.921875,0.53125 -1.046875,0.75 -0.25,-0.65625 -0.78125,-0.75 -1.078125,-0.75 -1.03125,0 -1.609375,1.28125 -1.609375,1.53125 0,0.109375 0.109375,0.109375 0.125,0.109375 0.078125,0 0.109375,-0.03125 0.125,-0.109375 0.34375,-1.0625 1,-1.3125 1.34375,-1.3125 0.1875,0 0.53125,0.09375 0.53125,0.671875 0,0.3125 -0.171875,0.96875 -0.53125,2.375 -0.15625,0.609375 -0.515625,1.03125 -0.953125,1.03125 -0.0625,0 -0.28125,0 -0.5,-0.125 0.25,-0.0625 0.46875,-0.265625 0.46875,-0.546875 0,-0.265625 -0.21875,-0.34375 -0.359375,-0.34375 -0.3125,0 -0.546875,0.25 -0.546875,0.578125 0,0.453125 0.484375,0.65625 0.921875,0.65625 0.671875,0 1.03125,-0.703125 1.046875,-0.75 0.125,0.359375 0.484375,0.75 1.078125,0.75 1.03125,0 1.59375,-1.28125 1.59375,-1.53125 0,-0.109375 -0.078125,-0.109375 -0.109375,-0.109375 -0.09375,0 -0.109375,0.046875 -0.140625,0.109375 -0.328125,1.078125 -1,1.3125 -1.3125,1.3125 -0.390625,0 -0.546875,-0.3125 -0.546875,-0.65625 0,-0.21875 0.046875,-0.4375 0.15625,-0.875 z m 0,0"
                           id="id-116377d9-d1eb-4a3a-a5a2-29875fdb7f29" />
                      </symbol>
                      <symbol
                         overflow="visible"
                         id="id-3eaee9ea-79b7-4db7-be7f-498d120f58b2">
                        <path
                           style="stroke:none;stroke-width:0"
                           d=""
                           id="id-56f936b6-ffe7-4754-ab02-dd37e230ffe9" />
                      </symbol>
                      <symbol
                         overflow="visible"
                         id="id-48e9ed31-ae3d-4a62-bd54-8c981a2d959d">
                        <path
                           style="stroke:none;stroke-width:0"
                           d="M 3.515625,-1.265625 H 3.28125 c -0.015625,0.15625 -0.09375,0.5625 -0.1875,0.625 C 3.046875,-0.59375 2.515625,-0.59375 2.40625,-0.59375 H 1.125 c 0.734375,-0.640625 0.984375,-0.84375 1.390625,-1.171875 0.515625,-0.40625 1,-0.84375 1,-1.5 0,-0.84375 -0.734375,-1.359375 -1.625,-1.359375 -0.859375,0 -1.453125,0.609375 -1.453125,1.25 0,0.34375 0.296875,0.390625 0.375,0.390625 0.15625,0 0.359375,-0.125 0.359375,-0.375 0,-0.125 -0.046875,-0.375 -0.40625,-0.375 C 0.984375,-4.21875 1.453125,-4.375 1.78125,-4.375 c 0.703125,0 1.0625,0.546875 1.0625,1.109375 0,0.609375 -0.4375,1.078125 -0.65625,1.328125 L 0.515625,-0.265625 C 0.4375,-0.203125 0.4375,-0.1875 0.4375,0 h 2.875 z m 0,0"
                           id="id-4fb8e3d3-94e6-4e09-ae1c-02ec24980bcb" />
                      </symbol>
                    </g>
                  </defs>
                  <g
                     id="id-eb0dd43b-7d21-4f6e-908f-2b0231fa2cf9"
                     transform="translate(-149.696,-126.289)">
                    <g
                       style="fill:#000000;fill-opacity:1"
                       id="id-0f074a29-ce46-4859-9f7b-fdde6a5b3527">
                      <g
                         transform="translate(148.712,126.695)"
                         id="g7768">
                        <path
                           style="stroke:none;stroke-width:0"
                           d="M 3.5,11.34375 C 3.5625,11.5 3.59375,11.5625 3.71875,11.5625 c 0.109375,0 0.203125,-0.09375 0.203125,-0.203125 0,0 0,-0.0625 -0.0625,-0.1875 l -2.46875,-5.59375 2.46875,-5.59375 c 0.0625,-0.125 0.0625,-0.171875 0.0625,-0.1875 0,-0.109375 -0.09375,-0.203125 -0.203125,-0.203125 -0.125,0 -0.15625,0.09375 -0.21875,0.21875 L 1.03125,5.390625 c -0.046875,0.125 -0.046875,0.1875 -0.046875,0.1875 0,0.015625 0,0.0625 0.046875,0.1875 z m 0,0"
                           id="id-b7a5f63e-b69b-4ce1-ab74-5d366098a1dd" />
                      </g>
                    </g>
                    <g
                       style="fill:#000000;fill-opacity:1"
                       id="id-70e9ed77-f981-44f6-a868-da037d4e07d5">
                      <g
                         transform="translate(153.417,134.765)"
                         id="g7772">
                        <path
                           style="stroke:none;stroke-width:0"
                           d="m 4.40625,-6.953125 c -0.0625,-0.140625 -0.09375,-0.1875 -0.265625,-0.1875 -0.15625,0 -0.1875,0.046875 -0.25,0.1875 l -3.375,6.75 C 0.46875,-0.109375 0.46875,-0.09375 0.46875,-0.078125 0.46875,0 0.53125,0 0.6875,0 h 6.921875 c 0.15625,0 0.21875,0 0.21875,-0.078125 0,-0.015625 0,-0.03125 -0.046875,-0.125 z m -0.578125,0.8125 2.6875,5.390625 h -5.375 z m 0,0"
                           id="id-f7e43a8d-97ce-4ff9-ae1e-2dbcdc2d5504" />
                      </g>
                    </g>
                    <g
                       style="fill:#000000;fill-opacity:1"
                       id="id-92d25375-0afa-4f40-b64e-428d7739e845">
                      <g
                         transform="translate(161.719,134.765)"
                         id="g7776">
                        <path
                           style="stroke:none;stroke-width:0"
                           d="M 3.328125,-3.015625 C 3.390625,-3.265625 3.625,-4.1875 4.3125,-4.1875 c 0.046875,0 0.296875,0 0.5,0.125 C 4.53125,-4 4.34375,-3.765625 4.34375,-3.515625 c 0,0.15625 0.109375,0.34375 0.375,0.34375 0.21875,0 0.53125,-0.171875 0.53125,-0.578125 0,-0.515625 -0.578125,-0.65625 -0.921875,-0.65625 -0.578125,0 -0.921875,0.53125 -1.046875,0.75 -0.25,-0.65625 -0.78125,-0.75 -1.078125,-0.75 -1.03125,0 -1.609375,1.28125 -1.609375,1.53125 0,0.109375 0.109375,0.109375 0.125,0.109375 0.078125,0 0.109375,-0.03125 0.125,-0.109375 0.34375,-1.0625 1,-1.3125 1.34375,-1.3125 0.1875,0 0.53125,0.09375 0.53125,0.671875 0,0.3125 -0.171875,0.96875 -0.53125,2.375 -0.15625,0.609375 -0.515625,1.03125 -0.953125,1.03125 -0.0625,0 -0.28125,0 -0.5,-0.125 0.25,-0.0625 0.46875,-0.265625 0.46875,-0.546875 0,-0.265625 -0.21875,-0.34375 -0.359375,-0.34375 -0.3125,0 -0.546875,0.25 -0.546875,0.578125 0,0.453125 0.484375,0.65625 0.921875,0.65625 0.671875,0 1.03125,-0.703125 1.046875,-0.75 0.125,0.359375 0.484375,0.75 1.078125,0.75 1.03125,0 1.59375,-1.28125 1.59375,-1.53125 0,-0.109375 -0.078125,-0.109375 -0.109375,-0.109375 -0.09375,0 -0.109375,0.046875 -0.140625,0.109375 -0.328125,1.078125 -1,1.3125 -1.3125,1.3125 -0.390625,0 -0.546875,-0.3125 -0.546875,-0.65625 0,-0.21875 0.046875,-0.4375 0.15625,-0.875 z m 0,0"
                           id="id-b6efa40c-660d-44e8-8a49-56c3b16afa5a" />
                      </g>
                    </g>
                    <g
                       style="fill:#000000;fill-opacity:1"
                       id="id-0353b36e-fc61-4231-8c95-2d47c3fd3545">
                      <g
                         transform="translate(167.413,131.149)"
                         id="g7780">
                        <path
                           style="stroke:none;stroke-width:0"
                           d="M 3.515625,-1.265625 H 3.28125 c -0.015625,0.15625 -0.09375,0.5625 -0.1875,0.625 C 3.046875,-0.59375 2.515625,-0.59375 2.40625,-0.59375 H 1.125 c 0.734375,-0.640625 0.984375,-0.84375 1.390625,-1.171875 0.515625,-0.40625 1,-0.84375 1,-1.5 0,-0.84375 -0.734375,-1.359375 -1.625,-1.359375 -0.859375,0 -1.453125,0.609375 -1.453125,1.25 0,0.34375 0.296875,0.390625 0.375,0.390625 0.15625,0 0.359375,-0.125 0.359375,-0.375 0,-0.125 -0.046875,-0.375 -0.40625,-0.375 C 0.984375,-4.21875 1.453125,-4.375 1.78125,-4.375 c 0.703125,0 1.0625,0.546875 1.0625,1.109375 0,0.609375 -0.4375,1.078125 -0.65625,1.328125 L 0.515625,-0.265625 C 0.4375,-0.203125 0.4375,-0.1875 0.4375,0 h 2.875 z m 0,0"
                           id="id-558188ca-6287-4d7b-8b75-0a405fe401da" />
                      </g>
                    </g>
                    <g
                       style="fill:#000000;fill-opacity:1"
                       id="id-21b8134a-0a84-461b-8c8f-99bcf65d4c03">
                      <g
                         transform="translate(171.882,126.695)"
                         id="g7784">
                        <path
                           style="stroke:none;stroke-width:0"
                           d="m 3.296875,5.578125 -2.453125,5.59375 c -0.0625,0.125 -0.0625,0.1875 -0.0625,0.1875 0,0.109375 0.09375,0.203125 0.203125,0.203125 0.125,0 0.15625,-0.07813 0.21875,-0.203125 L 3.65625,5.765625 c 0.0625,-0.125 0.0625,-0.171875 0.0625,-0.1875 0,0 0,-0.0625 -0.0625,-0.1875 l -2.453125,-5.5625 C 1.125,-0.34375 1.09375,-0.40625 0.984375,-0.40625 c -0.109375,0 -0.203125,0.09375 -0.203125,0.203125 0,0.015625 0,0.0625 0.0625,0.1875 z m 0,0"
                           id="id-ae034a70-0915-47cd-8e92-9597e22fdc9a" />
                      </g>
                    </g>
                  </g>
                </g>
                <g
                   transform="matrix(1.6948561,0,0,1.6948561,234.25898,258.33235)"
                   ns7:version="1.7.1"
                   ns7:texconverter="pdflatex"
                   ns7:pdfconverter="inkscape"
                   ns7:text="$t$"
                   ns7:preamble="C:\Users\liuzy\AppData\Roaming\inkscape\extensions\textext\default_packages.tex"
                   ns7:scale="1.0"
                   ns7:alignment="middle center"
                   ns7:stroke-to-path="0"
                   ns7:jacobian_sqrt="0.599806"
                   id="g8426">
                  <defs
                     id="id-3ce319f1-8d5c-485f-ac7f-a8de546d1cb0">
                    <g
                       id="id-f168bdb3-49b0-4433-a9dd-a4b5335a8efd">
                      <symbol
                         overflow="visible"
                         id="id-62885e01-4685-4088-93b1-7cf9f5c092ec">
                        <path
                           style="stroke:none;stroke-width:0"
                           d=""
                           id="id-846e6c7e-e56f-4bb6-9a06-d9232ffe5e5f" />
                      </symbol>
                      <symbol
                         overflow="visible"
                         id="id-445ec2d4-93e3-4b51-b489-98fd696a0574">
                        <path
                           style="stroke:none;stroke-width:0"
                           d="m 2.046875,-3.984375 h 0.9375 c 0.203125,0 0.3125,0 0.3125,-0.203125 0,-0.109375 -0.109375,-0.109375 -0.28125,-0.109375 h -0.875 C 2.5,-5.71875 2.546875,-5.90625 2.546875,-5.96875 c 0,-0.171875 -0.125,-0.265625 -0.296875,-0.265625 -0.03125,0 -0.3125,0 -0.390625,0.359375 L 1.46875,-4.296875 h -0.9375 c -0.203125,0 -0.296875,0 -0.296875,0.1875 0,0.125 0.078125,0.125 0.28125,0.125 h 0.875 C 0.671875,-1.15625 0.625,-0.984375 0.625,-0.8125 0.625,-0.265625 1,0.109375 1.546875,0.109375 2.5625,0.109375 3.125,-1.34375 3.125,-1.421875 3.125,-1.53125 3.046875,-1.53125 3.015625,-1.53125 2.921875,-1.53125 2.90625,-1.5 2.859375,-1.390625 2.4375,-0.34375 1.90625,-0.109375 1.5625,-0.109375 c -0.203125,0 -0.3125,-0.125 -0.3125,-0.453125 0,-0.25 0.03125,-0.3125 0.0625,-0.484375 z m 0,0"
                           id="id-77a7475b-45b8-49ec-beb2-3682fcddaa0f" />
                      </symbol>
                    </g>
                  </defs>
                  <g
                     id="id-9046f7f9-597b-40ad-b8b9-84d5e8fb3192"
                     transform="translate(-148.946,-128.531)">
                    <g
                       style="fill:#000000;fill-opacity:1"
                       id="id-2de064ca-fb3a-45f9-9b85-5b5b9f2a3100">
                      <g
                         transform="translate(148.712,134.765)"
                         id="g8422">
                        <path
                           style="stroke:none;stroke-width:0"
                           d="m 2.046875,-3.984375 h 0.9375 c 0.203125,0 0.3125,0 0.3125,-0.203125 0,-0.109375 -0.109375,-0.109375 -0.28125,-0.109375 h -0.875 C 2.5,-5.71875 2.546875,-5.90625 2.546875,-5.96875 c 0,-0.171875 -0.125,-0.265625 -0.296875,-0.265625 -0.03125,0 -0.3125,0 -0.390625,0.359375 L 1.46875,-4.296875 h -0.9375 c -0.203125,0 -0.296875,0 -0.296875,0.1875 0,0.125 0.078125,0.125 0.28125,0.125 h 0.875 C 0.671875,-1.15625 0.625,-0.984375 0.625,-0.8125 0.625,-0.265625 1,0.109375 1.546875,0.109375 2.5625,0.109375 3.125,-1.34375 3.125,-1.421875 3.125,-1.53125 3.046875,-1.53125 3.015625,-1.53125 2.921875,-1.53125 2.90625,-1.5 2.859375,-1.390625 2.4375,-0.34375 1.90625,-0.109375 1.5625,-0.109375 c -0.203125,0 -0.3125,-0.125 -0.3125,-0.453125 0,-0.25 0.03125,-0.3125 0.0625,-0.484375 z m 0,0"
                           id="id-a8a46947-4d3f-497f-9aea-8e3ccbc73595" />
                      </g>
                    </g>
                  </g>
                </g>
              </g>
            </g>
          </g>
          <g
             transform="matrix(0.09071258,0,0,0.09071258,151.78641,134.73192)"
             ns7:version="1.7.1"
             ns7:texconverter="pdflatex"
             ns7:pdfconverter="inkscape"
             ns7:text="$$\n\\left&lt;\\Delta x^2\\right&gt;_{t\\to0} = At^2\n$$"
             ns7:preamble="C:\Users\liuzy\AppData\Roaming\inkscape\extensions\textext\default_packages.tex"
             ns7:scale="1.0"
             ns7:alignment="middle center"
             ns7:stroke-to-path="0"
             ns7:jacobian_sqrt="0.0546426"
             id="g2966"
             style="fill:#a090b4">
            <defs
               id="id-437ce74b-27c8-4a0c-abb7-11c13d32c4a4">
              <g
                 id="id-76fadb8d-872d-4f1e-883c-56ca6e9c11a9">
                <symbol
                   overflow="visible"
                   id="id-b48e3a7d-4ab5-42f2-b239-a45bb10a3d40">
                  <path
                     style="stroke:none;stroke-width:0"
                     d=""
                     id="id-d4a8e076-50fa-4c0e-b894-4acf0c4c54df" />
                </symbol>
                <symbol
                   overflow="visible"
                   id="id-73400428-0e9a-4246-bff2-36c4d03def33">
                  <path
                     style="stroke:none;stroke-width:0"
                     d="M 3.5,11.34375 C 3.5625,11.5 3.59375,11.5625 3.71875,11.5625 c 0.109375,0 0.203125,-0.09375 0.203125,-0.203125 0,0 0,-0.0625 -0.0625,-0.1875 l -2.46875,-5.59375 2.46875,-5.59375 c 0.0625,-0.125 0.0625,-0.171875 0.0625,-0.1875 0,-0.109375 -0.09375,-0.203125 -0.203125,-0.203125 -0.125,0 -0.15625,0.09375 -0.21875,0.21875 L 1.03125,5.390625 c -0.046875,0.125 -0.046875,0.1875 -0.046875,0.1875 0,0.015625 0,0.0625 0.046875,0.1875 z m 0,0"
                     id="id-06de779c-ef8a-4117-ac4b-e404e755d391" />
                </symbol>
                <symbol
                   overflow="visible"
                   id="id-b6a14321-4f06-41a8-b3ea-85eed39082f0">
                  <path
                     style="stroke:none;stroke-width:0"
                     d="m 3.296875,5.578125 -2.453125,5.59375 c -0.0625,0.125 -0.0625,0.1875 -0.0625,0.1875 0,0.109375 0.09375,0.203125 0.203125,0.203125 0.125,0 0.15625,-0.07813 0.21875,-0.203125 L 3.65625,5.765625 c 0.0625,-0.125 0.0625,-0.171875 0.0625,-0.1875 0,0 0,-0.0625 -0.0625,-0.1875 l -2.453125,-5.5625 C 1.125,-0.34375 1.09375,-0.40625 0.984375,-0.40625 c -0.109375,0 -0.203125,0.09375 -0.203125,0.203125 0,0.015625 0,0.0625 0.0625,0.1875 z m 0,0"
                     id="id-14ced835-d0b8-4276-b51e-277d0156dd72" />
                </symbol>
                <symbol
                   overflow="visible"
                   id="id-1ba37dd7-a2fc-483b-8ace-0d8e8cc0a7cc">
                  <path
                     style="stroke:none;stroke-width:0"
                     d=""
                     id="id-e5628769-5165-44a4-8a03-3c16e5d77f6e" />
                </symbol>
                <symbol
                   overflow="visible"
                   id="id-60376e4b-9aa3-40d0-b669-8b9640a021a8">
                  <path
                     style="stroke:none;stroke-width:0"
                     d="m 4.40625,-6.953125 c -0.0625,-0.140625 -0.09375,-0.1875 -0.265625,-0.1875 -0.15625,0 -0.1875,0.046875 -0.25,0.1875 l -3.375,6.75 C 0.46875,-0.109375 0.46875,-0.09375 0.46875,-0.078125 0.46875,0 0.53125,0 0.6875,0 h 6.921875 c 0.15625,0 0.21875,0 0.21875,-0.078125 0,-0.015625 0,-0.03125 -0.046875,-0.125 z m -0.578125,0.8125 2.6875,5.390625 h -5.375 z m 0,0"
                     id="id-bb00a360-09f6-4de6-9f6a-87580e2acbd5" />
                </symbol>
                <symbol
                   overflow="visible"
                   id="id-2d8dee31-eb33-4c1e-a534-c1f6f9ad1b85">
                  <path
                     style="stroke:none;stroke-width:0"
                     d="m 6.84375,-3.265625 c 0.15625,0 0.34375,0 0.34375,-0.1875 C 7.1875,-3.65625 7,-3.65625 6.859375,-3.65625 h -5.96875 c -0.140625,0 -0.328125,0 -0.328125,0.203125 0,0.1875 0.1875,0.1875 0.328125,0.1875 z m 0.015625,1.9375 c 0.140625,0 0.328125,0 0.328125,-0.203125 0,-0.1875 -0.1875,-0.1875 -0.34375,-0.1875 H 0.890625 c -0.140625,0 -0.328125,0 -0.328125,0.1875 0,0.203125 0.1875,0.203125 0.328125,0.203125 z m 0,0"
                     id="id-ecb43a39-8990-49c6-a3f8-7d6b15626a31" />
                </symbol>
                <symbol
                   overflow="visible"
                   id="id-55b2bf0f-66aa-428f-9a64-6973056c7189">
                  <path
                     style="stroke:none;stroke-width:0"
                     d=""
                     id="id-7752aa8a-9188-41d2-aac1-fd1ca6d24264" />
                </symbol>
                <symbol
                   overflow="visible"
                   id="id-924ee265-e983-4964-b7fc-8ccf4294a246">
                  <path
                     style="stroke:none;stroke-width:0"
                     d="M 3.328125,-3.015625 C 3.390625,-3.265625 3.625,-4.1875 4.3125,-4.1875 c 0.046875,0 0.296875,0 0.5,0.125 C 4.53125,-4 4.34375,-3.765625 4.34375,-3.515625 c 0,0.15625 0.109375,0.34375 0.375,0.34375 0.21875,0 0.53125,-0.171875 0.53125,-0.578125 0,-0.515625 -0.578125,-0.65625 -0.921875,-0.65625 -0.578125,0 -0.921875,0.53125 -1.046875,0.75 -0.25,-0.65625 -0.78125,-0.75 -1.078125,-0.75 -1.03125,0 -1.609375,1.28125 -1.609375,1.53125 0,0.109375 0.109375,0.109375 0.125,0.109375 0.078125,0 0.109375,-0.03125 0.125,-0.109375 0.34375,-1.0625 1,-1.3125 1.34375,-1.3125 0.1875,0 0.53125,0.09375 0.53125,0.671875 0,0.3125 -0.171875,0.96875 -0.53125,2.375 -0.15625,0.609375 -0.515625,1.03125 -0.953125,1.03125 -0.0625,0 -0.28125,0 -0.5,-0.125 0.25,-0.0625 0.46875,-0.265625 0.46875,-0.546875 0,-0.265625 -0.21875,-0.34375 -0.359375,-0.34375 -0.3125,0 -0.546875,0.25 -0.546875,0.578125 0,0.453125 0.484375,0.65625 0.921875,0.65625 0.671875,0 1.03125,-0.703125 1.046875,-0.75 0.125,0.359375 0.484375,0.75 1.078125,0.75 1.03125,0 1.59375,-1.28125 1.59375,-1.53125 0,-0.109375 -0.078125,-0.109375 -0.109375,-0.109375 -0.09375,0 -0.109375,0.046875 -0.140625,0.109375 -0.328125,1.078125 -1,1.3125 -1.3125,1.3125 -0.390625,0 -0.546875,-0.3125 -0.546875,-0.65625 0,-0.21875 0.046875,-0.4375 0.15625,-0.875 z m 0,0"
                     id="id-afe8b7aa-ff18-47b4-a790-8e4525476e87" />
                </symbol>
                <symbol
                   overflow="visible"
                   id="id-5a1d3dfe-9e0e-42c1-a9ba-9de483b4aad8">
                  <path
                     style="stroke:none;stroke-width:0"
                     d="M 1.78125,-1.140625 C 1.390625,-0.484375 1,-0.34375 0.5625,-0.3125 0.4375,-0.296875 0.34375,-0.296875 0.34375,-0.109375 0.34375,-0.046875 0.40625,0 0.484375,0 0.75,0 1.0625,-0.03125 1.328125,-0.03125 c 0.34375,0 0.6875,0.03125 1,0.03125 0.0625,0 0.1875,0 0.1875,-0.1875 0,-0.109375 -0.078125,-0.125 -0.15625,-0.125 -0.21875,-0.015625 -0.46875,-0.09375 -0.46875,-0.34375 0,-0.125 0.0625,-0.234375 0.140625,-0.375 l 0.765625,-1.265625 h 2.5 c 0.015625,0.203125 0.15625,1.5625 0.15625,1.65625 0,0.296875 -0.515625,0.328125 -0.71875,0.328125 C 4.59375,-0.3125 4.5,-0.3125 4.5,-0.109375 4.5,0 4.609375,0 4.640625,0 5.046875,0 5.46875,-0.03125 5.875,-0.03125 6.125,-0.03125 6.765625,0 7.015625,0 7.0625,0 7.1875,0 7.1875,-0.203125 7.1875,-0.3125 7.09375,-0.3125 6.953125,-0.3125 6.34375,-0.3125 6.34375,-0.375 6.3125,-0.671875 l -0.609375,-6.21875 c -0.015625,-0.203125 -0.015625,-0.25 -0.1875,-0.25 -0.15625,0 -0.203125,0.078125 -0.265625,0.171875 z M 2.984375,-2.609375 4.9375,-5.90625 5.265625,-2.609375 Z m 0,0"
                     id="id-b49f3fb8-7db2-4383-ade9-61977c63d144" />
                </symbol>
                <symbol
                   overflow="visible"
                   id="id-7558789b-6478-4fdf-a35f-74143ee5d2c6">
                  <path
                     style="stroke:none;stroke-width:0"
                     d="m 2.046875,-3.984375 h 0.9375 c 0.203125,0 0.3125,0 0.3125,-0.203125 0,-0.109375 -0.109375,-0.109375 -0.28125,-0.109375 h -0.875 C 2.5,-5.71875 2.546875,-5.90625 2.546875,-5.96875 c 0,-0.171875 -0.125,-0.265625 -0.296875,-0.265625 -0.03125,0 -0.3125,0 -0.390625,0.359375 L 1.46875,-4.296875 h -0.9375 c -0.203125,0 -0.296875,0 -0.296875,0.1875 0,0.125 0.078125,0.125 0.28125,0.125 h 0.875 C 0.671875,-1.15625 0.625,-0.984375 0.625,-0.8125 0.625,-0.265625 1,0.109375 1.546875,0.109375 2.5625,0.109375 3.125,-1.34375 3.125,-1.421875 3.125,-1.53125 3.046875,-1.53125 3.015625,-1.53125 2.921875,-1.53125 2.90625,-1.5 2.859375,-1.390625 2.4375,-0.34375 1.90625,-0.109375 1.5625,-0.109375 c -0.203125,0 -0.3125,-0.125 -0.3125,-0.453125 0,-0.25 0.03125,-0.3125 0.0625,-0.484375 z m 0,0"
                     id="id-ee6c44c9-bce3-452b-b462-d6bf0a87f07f" />
                </symbol>
                <symbol
                   overflow="visible"
                   id="id-9ea8b4a3-ab47-4c07-84b4-2f4b8fea598c">
                  <path
                     style="stroke:none;stroke-width:0"
                     d=""
                     id="id-44042364-f257-41fb-99ed-8bb4dd430511" />
                </symbol>
                <symbol
                   overflow="visible"
                   id="id-afb3b7b9-e8c9-4ec1-be20-4fcf72b84c84">
                  <path
                     style="stroke:none;stroke-width:0"
                     d="M 3.515625,-1.265625 H 3.28125 c -0.015625,0.15625 -0.09375,0.5625 -0.1875,0.625 C 3.046875,-0.59375 2.515625,-0.59375 2.40625,-0.59375 H 1.125 c 0.734375,-0.640625 0.984375,-0.84375 1.390625,-1.171875 0.515625,-0.40625 1,-0.84375 1,-1.5 0,-0.84375 -0.734375,-1.359375 -1.625,-1.359375 -0.859375,0 -1.453125,0.609375 -1.453125,1.25 0,0.34375 0.296875,0.390625 0.375,0.390625 0.15625,0 0.359375,-0.125 0.359375,-0.375 0,-0.125 -0.046875,-0.375 -0.40625,-0.375 C 0.984375,-4.21875 1.453125,-4.375 1.78125,-4.375 c 0.703125,0 1.0625,0.546875 1.0625,1.109375 0,0.609375 -0.4375,1.078125 -0.65625,1.328125 L 0.515625,-0.265625 C 0.4375,-0.203125 0.4375,-0.1875 0.4375,0 h 2.875 z m 0,0"
                     id="id-28f3ebd7-89dd-4a56-8d10-8a8a5d5a0b54" />
                </symbol>
                <symbol
                   overflow="visible"
                   id="id-5d787f17-90f8-4863-899c-8c1c0e2c9ac9">
                  <path
                     style="stroke:none;stroke-width:0"
                     d="M 3.59375,-2.21875 C 3.59375,-2.984375 3.5,-3.546875 3.1875,-4.03125 2.96875,-4.34375 2.53125,-4.625 1.984375,-4.625 c -1.625,0 -1.625,1.90625 -1.625,2.40625 0,0.5 0,2.359375 1.625,2.359375 1.609375,0 1.609375,-1.859375 1.609375,-2.359375 z M 1.984375,-0.0625 c -0.328125,0 -0.75,-0.1875 -0.890625,-0.75 C 1,-1.21875 1,-1.796875 1,-2.3125 1,-2.828125 1,-3.359375 1.09375,-3.734375 1.25,-4.28125 1.6875,-4.4375 1.984375,-4.4375 c 0.375,0 0.734375,0.234375 0.859375,0.640625 0.109375,0.375 0.125,0.875 0.125,1.484375 0,0.515625 0,1.03125 -0.09375,1.46875 -0.140625,0.640625 -0.609375,0.78125 -0.890625,0.78125 z m 0,0"
                     id="id-76a520cd-f833-4885-b09b-441b42da1d08" />
                </symbol>
                <symbol
                   overflow="visible"
                   id="id-152005a2-41ab-44fc-ac06-46113411d87f">
                  <path
                     style="stroke:none;stroke-width:0"
                     d=""
                     id="id-9d52b7d3-858b-4f58-9ffc-4b463ea3ea0e" />
                </symbol>
                <symbol
                   overflow="visible"
                   id="id-ffe6e6bc-9249-4464-b204-9d531b049257">
                  <path
                     style="stroke:none;stroke-width:0"
                     d="m 1.71875,-2.75 h 0.703125 c 0.140625,0 0.21875,0 0.21875,-0.15625 C 2.640625,-3 2.5625,-3 2.4375,-3 H 1.78125 l 0.25,-1.03125 C 2.046875,-4.0625 2.0625,-4.109375 2.0625,-4.125 c 0,-0.140625 -0.109375,-0.234375 -0.25,-0.234375 -0.171875,0 -0.265625,0.125 -0.328125,0.296875 C 1.4375,-3.875 1.53125,-4.21875 1.21875,-3 H 0.515625 c -0.125,0 -0.21875,0 -0.21875,0.15625 C 0.296875,-2.75 0.375,-2.75 0.5,-2.75 H 1.15625 L 0.75,-1.109375 C 0.703125,-0.9375 0.640625,-0.6875 0.640625,-0.59375 c 0,0.40625 0.359375,0.65625 0.75,0.65625 0.78125,0 1.21875,-0.96875 1.21875,-1.0625 0,-0.09375 -0.09375,-0.09375 -0.109375,-0.09375 -0.09375,0 -0.09375,0.015625 -0.15625,0.140625 -0.1875,0.4375 -0.546875,0.828125 -0.921875,0.828125 -0.15625,0 -0.25,-0.09375 -0.25,-0.34375 0,-0.0625 0.03125,-0.21875 0.046875,-0.28125 z m 0,0"
                     id="id-a87b7fa9-f8fc-4097-9cd0-f519476f6d52" />
                </symbol>
                <symbol
                   overflow="visible"
                   id="id-51faf79d-f7ed-48fb-8aab-e8e3519a0f78">
                  <path
                     style="stroke:none;stroke-width:0"
                     d=""
                     id="id-c37c1781-2edf-4be6-ba8f-68e49d564daa" />
                </symbol>
                <symbol
                   overflow="visible"
                   id="id-b551bdb7-6602-420d-aca2-96cde26d0a2c">
                  <path
                     style="stroke:none;stroke-width:0"
                     d="m 6.40625,-1.578125 c -0.875,0.640625 -0.984375,1.5625 -0.984375,1.5625 0,0.109375 0.0625,0.109375 0.15625,0.109375 0.125,0 0.15625,0 0.1875,-0.125 0.046875,-0.171875 0.15625,-0.609375 0.515625,-1 0.40625,-0.421875 0.75,-0.53125 1.046875,-0.625 0.03125,-0.015625 0.0625,-0.046875 0.0625,-0.078125 0,-0.078125 -0.03125,-0.09375 -0.125,-0.125 C 6.265625,-2.171875 5.90625,-2.890625 5.75,-3.5 5.734375,-3.578125 5.671875,-3.578125 5.578125,-3.578125 c -0.09375,0 -0.15625,0 -0.15625,0.09375 0,0.015625 0.0625,0.484375 0.40625,0.96875 0.15625,0.234375 0.359375,0.4375 0.578125,0.59375 H 0.8125 c -0.109375,0 -0.28125,0 -0.28125,0.171875 0,0.171875 0.171875,0.171875 0.28125,0.171875 z m 0,0"
                     id="id-e9543519-6acf-4552-9dee-b00501216a47" />
                </symbol>
              </g>
            </defs>
            <g
               id="id-e90631be-7fdc-4d0a-8590-bb2488923d10"
               transform="translate(-270.549,-137.981)"
               style="fill:#a090b4">
              <g
                 style="fill:#a090b4;fill-opacity:1"
                 id="id-bee28927-b3ad-4ab0-b1e6-f61ccb2ae6f5">
                <g
                   transform="translate(269.565,138.65)"
                   id="g2919"
                   style="fill:#a090b4">
                  <path
                     style="fill:#a090b4;stroke:none;stroke-width:0"
                     d="M 3.5,11.34375 C 3.5625,11.5 3.59375,11.5625 3.71875,11.5625 c 0.109375,0 0.203125,-0.09375 0.203125,-0.203125 0,0 0,-0.0625 -0.0625,-0.1875 l -2.46875,-5.59375 2.46875,-5.59375 c 0.0625,-0.125 0.0625,-0.171875 0.0625,-0.1875 0,-0.109375 -0.09375,-0.203125 -0.203125,-0.203125 -0.125,0 -0.15625,0.09375 -0.21875,0.21875 L 1.03125,5.390625 c -0.046875,0.125 -0.046875,0.1875 -0.046875,0.1875 0,0.015625 0,0.0625 0.046875,0.1875 z m 0,0"
                     id="id-f3c8b185-4dde-4bd0-a945-4b6370f33809" />
                </g>
              </g>
              <g
                 style="fill:#a090b4;fill-opacity:1"
                 id="id-0181ed73-83f1-40f7-9794-05a4797a0f83">
                <g
                   transform="translate(274.269,146.72)"
                   id="g2923"
                   style="fill:#a090b4">
                  <path
                     style="fill:#a090b4;stroke:none;stroke-width:0"
                     d="m 4.40625,-6.953125 c -0.0625,-0.140625 -0.09375,-0.1875 -0.265625,-0.1875 -0.15625,0 -0.1875,0.046875 -0.25,0.1875 l -3.375,6.75 C 0.46875,-0.109375 0.46875,-0.09375 0.46875,-0.078125 0.46875,0 0.53125,0 0.6875,0 h 6.921875 c 0.15625,0 0.21875,0 0.21875,-0.078125 0,-0.015625 0,-0.03125 -0.046875,-0.125 z m -0.578125,0.8125 2.6875,5.390625 h -5.375 z m 0,0"
                     id="id-cacc00d6-f6a4-4eb8-ab3c-c150f55de860" />
                </g>
              </g>
              <g
                 style="fill:#a090b4;fill-opacity:1"
                 id="id-d6ed9dc1-a629-4ec3-8615-7f35db033b6d">
                <g
                   transform="translate(282.571,146.72)"
                   id="g2927"
                   style="fill:#a090b4">
                  <path
                     style="fill:#a090b4;stroke:none;stroke-width:0"
                     d="M 3.328125,-3.015625 C 3.390625,-3.265625 3.625,-4.1875 4.3125,-4.1875 c 0.046875,0 0.296875,0 0.5,0.125 C 4.53125,-4 4.34375,-3.765625 4.34375,-3.515625 c 0,0.15625 0.109375,0.34375 0.375,0.34375 0.21875,0 0.53125,-0.171875 0.53125,-0.578125 0,-0.515625 -0.578125,-0.65625 -0.921875,-0.65625 -0.578125,0 -0.921875,0.53125 -1.046875,0.75 -0.25,-0.65625 -0.78125,-0.75 -1.078125,-0.75 -1.03125,0 -1.609375,1.28125 -1.609375,1.53125 0,0.109375 0.109375,0.109375 0.125,0.109375 0.078125,0 0.109375,-0.03125 0.125,-0.109375 0.34375,-1.0625 1,-1.3125 1.34375,-1.3125 0.1875,0 0.53125,0.09375 0.53125,0.671875 0,0.3125 -0.171875,0.96875 -0.53125,2.375 -0.15625,0.609375 -0.515625,1.03125 -0.953125,1.03125 -0.0625,0 -0.28125,0 -0.5,-0.125 0.25,-0.0625 0.46875,-0.265625 0.46875,-0.546875 0,-0.265625 -0.21875,-0.34375 -0.359375,-0.34375 -0.3125,0 -0.546875,0.25 -0.546875,0.578125 0,0.453125 0.484375,0.65625 0.921875,0.65625 0.671875,0 1.03125,-0.703125 1.046875,-0.75 0.125,0.359375 0.484375,0.75 1.078125,0.75 1.03125,0 1.59375,-1.28125 1.59375,-1.53125 0,-0.109375 -0.078125,-0.109375 -0.109375,-0.109375 -0.09375,0 -0.109375,0.046875 -0.140625,0.109375 -0.328125,1.078125 -1,1.3125 -1.3125,1.3125 -0.390625,0 -0.546875,-0.3125 -0.546875,-0.65625 0,-0.21875 0.046875,-0.4375 0.15625,-0.875 z m 0,0"
                     id="id-a7120cef-4bb3-43b7-babf-37b6a714bbdf" />
                </g>
              </g>
              <g
                 style="fill:#a090b4;fill-opacity:1"
                 id="id-50ccc2a8-5a59-4e1a-b168-c07118c88d93">
                <g
                   transform="translate(288.265,142.606)"
                   id="g2931"
                   style="fill:#a090b4">
                  <path
                     style="fill:#a090b4;stroke:none;stroke-width:0"
                     d="M 3.515625,-1.265625 H 3.28125 c -0.015625,0.15625 -0.09375,0.5625 -0.1875,0.625 C 3.046875,-0.59375 2.515625,-0.59375 2.40625,-0.59375 H 1.125 c 0.734375,-0.640625 0.984375,-0.84375 1.390625,-1.171875 0.515625,-0.40625 1,-0.84375 1,-1.5 0,-0.84375 -0.734375,-1.359375 -1.625,-1.359375 -0.859375,0 -1.453125,0.609375 -1.453125,1.25 0,0.34375 0.296875,0.390625 0.375,0.390625 0.15625,0 0.359375,-0.125 0.359375,-0.375 0,-0.125 -0.046875,-0.375 -0.40625,-0.375 C 0.984375,-4.21875 1.453125,-4.375 1.78125,-4.375 c 0.703125,0 1.0625,0.546875 1.0625,1.109375 0,0.609375 -0.4375,1.078125 -0.65625,1.328125 L 0.515625,-0.265625 C 0.4375,-0.203125 0.4375,-0.1875 0.4375,0 h 2.875 z m 0,0"
                     id="id-ea96b47a-d991-43a0-b86f-8c8a8f233e67" />
                </g>
              </g>
              <g
                 style="fill:#a090b4;fill-opacity:1"
                 id="id-4d3420e0-0b3b-4732-9290-689f466a6a09">
                <g
                   transform="translate(292.735,138.65)"
                   id="g2935"
                   style="fill:#a090b4">
                  <path
                     style="fill:#a090b4;stroke:none;stroke-width:0"
                     d="m 3.296875,5.578125 -2.453125,5.59375 c -0.0625,0.125 -0.0625,0.1875 -0.0625,0.1875 0,0.109375 0.09375,0.203125 0.203125,0.203125 0.125,0 0.15625,-0.07813 0.21875,-0.203125 L 3.65625,5.765625 c 0.0625,-0.125 0.0625,-0.171875 0.0625,-0.1875 0,0 0,-0.0625 -0.0625,-0.1875 l -2.453125,-5.5625 C 1.125,-0.34375 1.09375,-0.40625 0.984375,-0.40625 c -0.109375,0 -0.203125,0.09375 -0.203125,0.203125 0,0.015625 0,0.0625 0.0625,0.1875 z m 0,0"
                     id="id-a34aedcb-6c8b-4996-bf75-2bee6d83eaed" />
                </g>
              </g>
              <g
                 style="fill:#a090b4;fill-opacity:1"
                 id="id-ae57e682-45b4-4fc3-b039-b07fb1aef4b8">
                <g
                   transform="translate(297.439,150.705)"
                   id="g2939"
                   style="fill:#a090b4">
                  <path
                     style="fill:#a090b4;stroke:none;stroke-width:0"
                     d="m 1.71875,-2.75 h 0.703125 c 0.140625,0 0.21875,0 0.21875,-0.15625 C 2.640625,-3 2.5625,-3 2.4375,-3 H 1.78125 l 0.25,-1.03125 C 2.046875,-4.0625 2.0625,-4.109375 2.0625,-4.125 c 0,-0.140625 -0.109375,-0.234375 -0.25,-0.234375 -0.171875,0 -0.265625,0.125 -0.328125,0.296875 C 1.4375,-3.875 1.53125,-4.21875 1.21875,-3 H 0.515625 c -0.125,0 -0.21875,0 -0.21875,0.15625 C 0.296875,-2.75 0.375,-2.75 0.5,-2.75 H 1.15625 L 0.75,-1.109375 C 0.703125,-0.9375 0.640625,-0.6875 0.640625,-0.59375 c 0,0.40625 0.359375,0.65625 0.75,0.65625 0.78125,0 1.21875,-0.96875 1.21875,-1.0625 0,-0.09375 -0.09375,-0.09375 -0.109375,-0.09375 -0.09375,0 -0.09375,0.015625 -0.15625,0.140625 -0.1875,0.4375 -0.546875,0.828125 -0.921875,0.828125 -0.15625,0 -0.25,-0.09375 -0.25,-0.34375 0,-0.0625 0.03125,-0.21875 0.046875,-0.28125 z m 0,0"
                     id="id-1215f828-86a0-4f3b-9d7a-091b42fd0ef3" />
                </g>
              </g>
              <g
                 style="fill:#a090b4;fill-opacity:1"
                 id="id-5a66e75c-9585-46cf-98f4-4d20d0281e4e">
                <g
                   transform="translate(300.449,150.705)"
                   id="g2943"
                   style="fill:#a090b4">
                  <path
                     style="fill:#a090b4;stroke:none;stroke-width:0"
                     d="m 6.40625,-1.578125 c -0.875,0.640625 -0.984375,1.5625 -0.984375,1.5625 0,0.109375 0.0625,0.109375 0.15625,0.109375 0.125,0 0.15625,0 0.1875,-0.125 0.046875,-0.171875 0.15625,-0.609375 0.515625,-1 0.40625,-0.421875 0.75,-0.53125 1.046875,-0.625 0.03125,-0.015625 0.0625,-0.046875 0.0625,-0.078125 0,-0.078125 -0.03125,-0.09375 -0.125,-0.125 C 6.265625,-2.171875 5.90625,-2.890625 5.75,-3.5 5.734375,-3.578125 5.671875,-3.578125 5.578125,-3.578125 c -0.09375,0 -0.15625,0 -0.15625,0.09375 0,0.015625 0.0625,0.484375 0.40625,0.96875 0.15625,0.234375 0.359375,0.4375 0.578125,0.59375 H 0.8125 c -0.109375,0 -0.28125,0 -0.28125,0.171875 0,0.171875 0.171875,0.171875 0.28125,0.171875 z m 0,0"
                     id="id-81ba8890-248d-4430-aff9-7289678fa626" />
                </g>
              </g>
              <g
                 style="fill:#a090b4;fill-opacity:1"
                 id="id-1f1ad061-1a42-402b-b159-2c5fd61747ee">
                <g
                   transform="translate(308.391,150.705)"
                   id="g2947"
                   style="fill:#a090b4">
                  <path
                     style="fill:#a090b4;stroke:none;stroke-width:0"
                     d="M 3.59375,-2.21875 C 3.59375,-2.984375 3.5,-3.546875 3.1875,-4.03125 2.96875,-4.34375 2.53125,-4.625 1.984375,-4.625 c -1.625,0 -1.625,1.90625 -1.625,2.40625 0,0.5 0,2.359375 1.625,2.359375 1.609375,0 1.609375,-1.859375 1.609375,-2.359375 z M 1.984375,-0.0625 c -0.328125,0 -0.75,-0.1875 -0.890625,-0.75 C 1,-1.21875 1,-1.796875 1,-2.3125 1,-2.828125 1,-3.359375 1.09375,-3.734375 1.25,-4.28125 1.6875,-4.4375 1.984375,-4.4375 c 0.375,0 0.734375,0.234375 0.859375,0.640625 0.109375,0.375 0.125,0.875 0.125,1.484375 0,0.515625 0,1.03125 -0.09375,1.46875 -0.140625,0.640625 -0.609375,0.78125 -0.890625,0.78125 z m 0,0"
                     id="id-c9c12c3d-ad48-4f73-adfa-e7d6ce7b090c" />
                </g>
              </g>
              <g
                 style="fill:#a090b4;fill-opacity:1"
                 id="id-19105f59-bd22-4c70-997e-af3d07fcedc8">
                <g
                   transform="translate(315.628,146.72)"
                   id="g2951"
                   style="fill:#a090b4">
                  <path
                     style="fill:#a090b4;stroke:none;stroke-width:0"
                     d="m 6.84375,-3.265625 c 0.15625,0 0.34375,0 0.34375,-0.1875 C 7.1875,-3.65625 7,-3.65625 6.859375,-3.65625 h -5.96875 c -0.140625,0 -0.328125,0 -0.328125,0.203125 0,0.1875 0.1875,0.1875 0.328125,0.1875 z m 0.015625,1.9375 c 0.140625,0 0.328125,0 0.328125,-0.203125 0,-0.1875 -0.1875,-0.1875 -0.34375,-0.1875 H 0.890625 c -0.140625,0 -0.328125,0 -0.328125,0.1875 0,0.203125 0.1875,0.203125 0.328125,0.203125 z m 0,0"
                     id="id-cbcbbf84-ee77-4293-944c-5561705a7a6e" />
                </g>
              </g>
              <g
                 style="fill:#a090b4;fill-opacity:1"
                 id="id-f9c5217e-adb5-49e8-ad73-3f38bc4f2e48">
                <g
                   transform="translate(326.144,146.72)"
                   id="g2955"
                   style="fill:#a090b4">
                  <path
                     style="fill:#a090b4;stroke:none;stroke-width:0"
                     d="M 1.78125,-1.140625 C 1.390625,-0.484375 1,-0.34375 0.5625,-0.3125 0.4375,-0.296875 0.34375,-0.296875 0.34375,-0.109375 0.34375,-0.046875 0.40625,0 0.484375,0 0.75,0 1.0625,-0.03125 1.328125,-0.03125 c 0.34375,0 0.6875,0.03125 1,0.03125 0.0625,0 0.1875,0 0.1875,-0.1875 0,-0.109375 -0.078125,-0.125 -0.15625,-0.125 -0.21875,-0.015625 -0.46875,-0.09375 -0.46875,-0.34375 0,-0.125 0.0625,-0.234375 0.140625,-0.375 l 0.765625,-1.265625 h 2.5 c 0.015625,0.203125 0.15625,1.5625 0.15625,1.65625 0,0.296875 -0.515625,0.328125 -0.71875,0.328125 C 4.59375,-0.3125 4.5,-0.3125 4.5,-0.109375 4.5,0 4.609375,0 4.640625,0 5.046875,0 5.46875,-0.03125 5.875,-0.03125 6.125,-0.03125 6.765625,0 7.015625,0 7.0625,0 7.1875,0 7.1875,-0.203125 7.1875,-0.3125 7.09375,-0.3125 6.953125,-0.3125 6.34375,-0.3125 6.34375,-0.375 6.3125,-0.671875 l -0.609375,-6.21875 c -0.015625,-0.203125 -0.015625,-0.25 -0.1875,-0.25 -0.15625,0 -0.203125,0.078125 -0.265625,0.171875 z M 2.984375,-2.609375 4.9375,-5.90625 5.265625,-2.609375 Z m 0,0"
                     id="id-6fdee49c-93d0-4268-bec4-f0bb33963888" />
                </g>
                <g
                   transform="translate(333.616,146.72)"
                   id="g2958"
                   style="fill:#a090b4">
                  <path
                     style="fill:#a090b4;stroke:none;stroke-width:0"
                     d="m 2.046875,-3.984375 h 0.9375 c 0.203125,0 0.3125,0 0.3125,-0.203125 0,-0.109375 -0.109375,-0.109375 -0.28125,-0.109375 h -0.875 C 2.5,-5.71875 2.546875,-5.90625 2.546875,-5.96875 c 0,-0.171875 -0.125,-0.265625 -0.296875,-0.265625 -0.03125,0 -0.3125,0 -0.390625,0.359375 L 1.46875,-4.296875 h -0.9375 c -0.203125,0 -0.296875,0 -0.296875,0.1875 0,0.125 0.078125,0.125 0.28125,0.125 h 0.875 C 0.671875,-1.15625 0.625,-0.984375 0.625,-0.8125 0.625,-0.265625 1,0.109375 1.546875,0.109375 2.5625,0.109375 3.125,-1.34375 3.125,-1.421875 3.125,-1.53125 3.046875,-1.53125 3.015625,-1.53125 2.921875,-1.53125 2.90625,-1.5 2.859375,-1.390625 2.4375,-0.34375 1.90625,-0.109375 1.5625,-0.109375 c -0.203125,0 -0.3125,-0.125 -0.3125,-0.453125 0,-0.25 0.03125,-0.3125 0.0625,-0.484375 z m 0,0"
                     id="id-f55f724e-1d7d-4e4a-837f-bfe0004e4a17" />
                </g>
              </g>
              <g
                 style="fill:#a090b4;fill-opacity:1"
                 id="id-ef574ad0-268b-4719-a0ad-54132fa81c6c">
                <g
                   transform="translate(337.214,142.606)"
                   id="g2962"
                   style="fill:#a090b4">
                  <path
                     style="fill:#a090b4;stroke:none;stroke-width:0"
                     d="M 3.515625,-1.265625 H 3.28125 c -0.015625,0.15625 -0.09375,0.5625 -0.1875,0.625 C 3.046875,-0.59375 2.515625,-0.59375 2.40625,-0.59375 H 1.125 c 0.734375,-0.640625 0.984375,-0.84375 1.390625,-1.171875 0.515625,-0.40625 1,-0.84375 1,-1.5 0,-0.84375 -0.734375,-1.359375 -1.625,-1.359375 -0.859375,0 -1.453125,0.609375 -1.453125,1.25 0,0.34375 0.296875,0.390625 0.375,0.390625 0.15625,0 0.359375,-0.125 0.359375,-0.375 0,-0.125 -0.046875,-0.375 -0.40625,-0.375 C 0.984375,-4.21875 1.453125,-4.375 1.78125,-4.375 c 0.703125,0 1.0625,0.546875 1.0625,1.109375 0,0.609375 -0.4375,1.078125 -0.65625,1.328125 L 0.515625,-0.265625 C 0.4375,-0.203125 0.4375,-0.1875 0.4375,0 h 2.875 z m 0,0"
                     id="id-ac012fe6-843f-4d0d-917c-fffe6d5d9f00" />
                </g>
              </g>
            </g>
          </g>
        </g>
      </g>
      <path
         style="fill:none;stroke:#a8bcb0;stroke-width:0.309785;stroke-linecap:butt;stroke-linejoin:miter;stroke-miterlimit:4;stroke-dasharray:none;stroke-opacity:1"
         d="m 160.56621,126.00794 c 1.35945,-0.57391 8.14752,-0.2217 8.14752,-0.2217"
         transform="matrix(6.4561,0,0,6.4561,-927.13553,-731.57646)"
         id="path6782" />
      <path
         style="fill:none;stroke:#987838;stroke-width:0.309785;stroke-linecap:butt;stroke-linejoin:miter;stroke-miterlimit:4;stroke-dasharray:none;stroke-opacity:1"
         d="m 153.13927,131.05164 c 1.15362,-1.25169 5.88367,-4.39218 7.42694,-5.0437"
         transform="matrix(6.4561,0,0,6.4561,-927.13553,-731.57646)"
         id="path6502" />
      <path
         style="fill:#ffccff;stroke:#a490b4;stroke-width:0.309785;stroke-linecap:butt;stroke-linejoin:miter;stroke-miterlimit:4;stroke-dasharray:none;stroke-opacity:1"
         d="m 149.98003,136.26163 c 0,0 2.15704,-4.12258 3.15924,-5.20999"
         transform="matrix(6.4561,0,0,6.4561,-927.13553,-731.57646)"
         id="path1478" />
    </g>
  </g>
</svg>
